<?xml version="1.0" encoding="utf-8"?>
<!-- Generator: Adobe Illustrator 25.2.1, SVG Export Plug-In . SVG Version: 6.00 Build 0)  -->
<svg version="1.1" id="Layer_1" xmlns="http://www.w3.org/2000/svg" xmlns:xlink="http://www.w3.org/1999/xlink" x="0px" y="0px"
	 viewBox="0 0 500 500" style="enable-background:new 0 0 500 500;" xml:space="preserve">
<style type="text/css">
	.st0{opacity:0.1;fill:#171690;}
	.st1{opacity:0.2;fill:#171690;}
	.st2{opacity:0.32;fill:#171690;}
	.st3{opacity:0.6;fill:#171690;}
	.st4{opacity:0.8;fill:#171690;}
	.st5{fill:#171690;}
	.st6{opacity:0.1;fill:#FFFFFF;}
	.st7{opacity:0.2;fill:#FFFFFF;}
	.st8{opacity:0.32;fill:#FFFFFF;}
	.st9{opacity:0.6;fill:#FFFFFF;}
	.st10{opacity:0.8;fill:#FFFFFF;}
	.st11{fill:#FFFFFF;}
</style>
<g>
	<g>
		<path class="st0" d="M25.45,310.26l0.49,0.13l3.4-12.77c0,0,5.12-19.23,6.08-22.86c0.41-1.55,0.62-2.93,0.62-4.13
			c0-0.54-0.04-1.05-0.13-1.51c-0.43-2.22-1.67-4.83-2.56-6.62c-0.46-0.92-0.94-1.83-1.41-2.73l0,0l-0.09-0.18l0,0
			c-1.12-2.12-2.26-4.3-3.39-6.79c-4.67-10.32-7.01-20.71-7.01-31.04c0-4.78,0.5-9.55,1.5-14.29c3.74-17.64,13.42-30.99,28.83-39.79
			c8.53-4.86,18.04-7.63,29.13-8.46c2.31-0.17,4.68-0.26,7.04-0.26c3.57,0,7.29,0.2,11.07,0.59c7.96,0.84,15.08,2.48,21.76,5.02
			c14.08,5.35,24.55,14.7,31.2,27.85c3.3,6.53,5.65,13.3,6.99,20.11c0.55,2.79,0.86,5.29,1.16,7.72l0,0l0.1,0.8
			c0.19,1.52,0.29,3.04,0.29,4.57c0,1.88-0.15,3.77-0.44,5.71l-0.03,0.19l0.1,0.16c1.38,2.18,2.68,4.27,3.87,6.17
			c1.19,1.9,2.11,3.76,2.83,5.69c1.11,2.98,1.65,6.02,1.65,9.01c0,7.23-3.15,14.13-8.99,19.02l-0.12,0.1l-0.04,0.15
			c-0.16,0.57-0.34,1.14-0.55,1.69l-0.02,0.06l-0.01,0.06c-0.28,2.57-0.99,5.05-2.11,7.41l-0.06,0.12l0.01,0.13
			c0.05,0.73,0.07,1.47,0.07,2.21c0,0.46-0.01,0.92-0.03,1.38c-0.5,12.35-8.06,22.32-19.78,26.09c-2.72,0.87-5.53,1.4-8.51,1.61
			l-0.4,0.03l-0.07,0.39c-0.26,1.53-4.74,28.32-4.74,28.32l0.5,0.08l0.15-0.48l-98.19-31.13L25.45,310.26l0.49,0.13L25.45,310.26
			l-0.15,0.48l98.74,31.31l0.1-0.57c0,0,0.28-1.67,0.7-4.21c1.27-7.61,3.84-22.96,4.03-24.11l-0.5-0.08l0.03,0.5
			c3.06-0.21,5.95-0.75,8.75-1.65c12.11-3.88,19.98-14.26,20.48-27.01c0.02-0.48,0.03-0.95,0.03-1.42c0-0.76-0.02-1.52-0.07-2.27
			l-0.5,0.03l0.45,0.22c1.17-2.46,1.9-5.05,2.2-7.73l-0.5-0.06l0.47,0.17c0.21-0.58,0.4-1.17,0.57-1.77l-0.48-0.14l0.32,0.39
			c6.07-5.08,9.36-12.27,9.36-19.79c0-3.11-0.56-6.27-1.71-9.36c-0.74-2-1.7-3.92-2.92-5.87c-1.19-1.9-2.49-3.99-3.87-6.18
			l-0.43,0.27l0.5,0.08c0.3-1.98,0.45-3.93,0.45-5.86c0-1.57-0.1-3.14-0.3-4.7l-0.1-0.8l0,0c-0.3-2.43-0.62-4.96-1.17-7.79
			c-1.36-6.9-3.74-13.75-7.08-20.37c-6.74-13.36-17.45-22.91-31.74-28.33c-6.77-2.57-13.98-4.23-22.01-5.08
			c-3.81-0.4-7.56-0.6-11.17-0.6c-2.38,0-4.78,0.09-7.11,0.26c-11.21,0.84-20.88,3.65-29.55,8.59
			c-15.65,8.91-25.53,22.56-29.32,40.46c-1.02,4.81-1.53,9.65-1.53,14.5c0,10.48,2.37,21.01,7.1,31.45c1.14,2.52,2.3,4.72,3.41,6.85
			l0.01,0.02l0.08,0.15l0,0c0.48,0.9,0.95,1.81,1.4,2.72c0.88,1.76,2.09,4.34,2.47,6.36c0.08,0.4,0.12,0.84,0.11,1.32
			c0,1.08-0.19,2.38-0.59,3.87c-0.96,3.62-6.08,22.85-6.08,22.85l-3.52,13.23l0.46,0.15L25.45,310.26z"/>
		<path class="st1" d="M31.97,306.52l0.69,0.18l2.17-8.14c0,0,5.08-19.08,6.03-22.68c0.52-1.97,0.79-3.76,0.79-5.39
			c0-0.86-0.07-1.69-0.22-2.47c-0.54-2.79-1.89-5.68-2.99-7.89c-0.49-0.97-0.99-1.93-1.49-2.89l-0.05-0.09l0,0
			c-1.07-2.04-2.17-4.13-3.22-6.46c-4.33-9.57-6.49-19.17-6.49-28.69c0-4.38,0.46-8.75,1.38-13.1c3.4-16.02,12.15-28.1,26.12-36.08
			c7.78-4.44,16.51-6.97,26.73-7.73c2.16-0.16,4.38-0.24,6.6-0.24c3.36,0,6.88,0.19,10.44,0.56c7.45,0.78,14.09,2.31,20.29,4.67
			c12.74,4.84,22.19,13.28,28.19,25.14c3.07,6.07,5.24,12.33,6.48,18.62c0.51,2.59,0.81,4.97,1.1,7.3l0.1,0.8l0.01,0.12l-0.01-0.12
			c0.16,1.29,0.24,2.58,0.24,3.89c0,2.16-0.22,4.35-0.68,6.63l-0.06,0.28l0.15,0.24c1.73,2.74,3.37,5.36,4.83,7.7
			c0.99,1.59,1.76,3.13,2.35,4.72c0.88,2.36,1.3,4.76,1.3,7.11c0,5.82-2.59,11.36-7.39,15.23c-0.28,0.23-0.57,0.45-0.87,0.67
			l-0.23,0.17l-0.05,0.28c-0.21,1.11-0.54,2.2-0.96,3.25l-0.04,0.1l-0.01,0.11c-0.2,2.56-0.96,5.07-2.24,7.36l-0.11,0.2l0.02,0.23
			c0.11,1.03,0.17,2.08,0.17,3.13c0,0.39-0.01,0.78-0.02,1.17v0c-0.2,5.03-1.84,9.56-4.62,13.22c-2.77,3.66-6.68,6.45-11.45,7.98
			c-3.02,0.97-6.18,1.44-9.69,1.44c-0.43,0-0.85-0.01-1.29-0.02l-0.62-0.02l-0.1,0.61c-0.48,2.82-1.01,5.97-1.37,8.14l-2.94,17.58
			l-86.75-27.5L31.97,306.52l0.69,0.18L31.97,306.52l-0.22,0.68l88.32,28l3.21-19.2c0.36-2.17,0.89-5.32,1.37-8.14l-0.7-0.12
			l-0.02,0.71c0.45,0.01,0.9,0.02,1.34,0.02c3.64,0,6.96-0.49,10.13-1.51c5.04-1.62,9.2-4.58,12.15-8.48
			c2.95-3.9,4.69-8.72,4.91-14.02v0c0.02-0.41,0.02-0.82,0.02-1.22c0-1.1-0.06-2.2-0.18-3.28l-0.71,0.08l0.62,0.35
			c1.37-2.47,2.2-5.18,2.41-7.95l-0.71-0.06l0.66,0.27c0.46-1.14,0.81-2.32,1.04-3.52l-0.7-0.13l0.42,0.58
			c0.32-0.23,0.63-0.47,0.93-0.71c5.13-4.13,7.92-10.1,7.92-16.34c0-2.53-0.46-5.1-1.39-7.61c-0.63-1.68-1.44-3.31-2.48-4.97
			c-1.46-2.34-3.1-4.97-4.83-7.71l-0.6,0.38l0.7,0.14c0.47-2.36,0.7-4.65,0.7-6.9c0-1.36-0.09-2.72-0.26-4.06v0l-0.1-0.8
			c-0.29-2.33-0.59-4.75-1.11-7.4c-1.26-6.42-3.49-12.81-6.61-18.99c-6.14-12.17-15.92-20.88-28.95-25.83
			c-6.33-2.41-13.1-3.96-20.65-4.75c-3.61-0.38-7.18-0.57-10.59-0.57c-2.25,0-4.5,0.08-6.7,0.25c-10.4,0.78-19.35,3.37-27.33,7.92
			c-14.3,8.14-23.35,20.65-26.81,37.02c-0.94,4.44-1.41,8.91-1.41,13.39c0,9.74,2.22,19.55,6.62,29.28
			c1.07,2.37,2.19,4.49,3.26,6.53l0,0l0.05,0.09l0,0c0.5,0.96,1,1.91,1.48,2.86c1.09,2.17,2.38,4.98,2.86,7.52
			c0.13,0.69,0.2,1.42,0.2,2.2c0,1.48-0.24,3.15-0.74,5.03c-0.48,1.8-1.98,7.47-3.37,12.68c-0.69,2.61-1.36,5.11-1.85,6.95
			c-0.49,1.84-0.81,3.04-0.81,3.04l-2.34,8.8l0.65,0.21L31.97,306.52z"/>
		<path class="st2" d="M38.1,302.86l0.77,0.21l1.07-4.01c0,0,5.01-18.82,5.95-22.37c0.61-2.32,0.93-4.46,0.93-6.46
			c0-1.13-0.1-2.22-0.3-3.27c-0.63-3.29-2.13-6.51-3.34-8.94c-0.51-1.02-1.04-2.02-1.56-3.02c-1.03-1.96-2.08-3.96-3.06-6.13
			c-4-8.85-6-17.71-6-26.49c0-4.02,0.42-8.01,1.26-11.98c3.08-14.51,10.99-25.43,23.62-32.64c7.09-4.04,15.08-6.35,24.5-7.06
			c2.02-0.15,4.1-0.23,6.17-0.23c3.17,0,6.48,0.18,9.84,0.53c6.97,0.73,13.14,2.15,18.9,4.34c11.5,4.37,20.01,11.97,25.42,22.65
			c2.84,5.62,4.86,11.41,6,17.22c0.47,2.4,0.76,4.68,1.04,6.91l0,0l0.1,0.78c0.14,1.07,0.2,2.16,0.2,3.26
			c0,2.35-0.31,4.76-0.94,7.31l-0.08,0.33l0.18,0.29c2.05,3.23,4.01,6.36,5.71,9.09c0.82,1.31,1.45,2.57,1.92,3.85
			c0.67,1.8,0.99,3.64,0.99,5.43c0,4.43-1.96,8.65-5.62,11.59c-0.71,0.57-1.44,1.06-2.13,1.47l-0.36,0.22l-0.03,0.42
			c-0.1,1.59-0.49,3.13-1.16,4.58l-0.07,0.15l0,0.16c-0.07,2.54-0.89,5.01-2.37,7.19l-0.18,0.27l0.05,0.32
			c0.22,1.29,0.33,2.61,0.33,3.96c0,0.33-0.01,0.66-0.02,0.99c-0.16,4-1.47,7.6-3.67,10.51c-2.2,2.91-5.31,5.13-9.1,6.35
			c-2.53,0.81-5.2,1.21-8.2,1.21c-1.18,0-2.39-0.06-3.83-0.19c-0.32-0.03-0.67-0.06-1.04-0.09l-0.73-0.06l-0.12,0.72
			c-0.54,3.19-1.46,8.67-2.01,11.92l-2.05,12.29L38.34,302.1L38.1,302.86l0.77,0.21L38.1,302.86l-0.24,0.76l78.48,24.88l2.36-14.1
			c0.54-3.25,1.47-8.74,2.01-11.92l-0.79-0.13l-0.06,0.79c0.36,0.03,0.71,0.06,1.03,0.09c1.47,0.13,2.74,0.19,3.97,0.19
			c3.14,0,5.99-0.42,8.69-1.29c4.09-1.31,7.48-3.73,9.88-6.9c2.4-3.17,3.82-7.1,3.99-11.41c0.01-0.35,0.02-0.71,0.02-1.06
			c0-1.44-0.12-2.85-0.35-4.23l-0.79,0.13l0.66,0.45c1.65-2.43,2.57-5.2,2.65-8.05l-0.8-0.02l0.72,0.34
			c0.75-1.62,1.19-3.36,1.31-5.15l-0.8-0.05l0.41,0.68c0.74-0.44,1.53-0.97,2.31-1.6c4.02-3.24,6.22-7.93,6.21-12.83
			c0-1.99-0.36-4.01-1.09-5.99c-0.52-1.39-1.19-2.74-2.06-4.14c-1.7-2.73-3.67-5.86-5.72-9.1l-0.67,0.43l0.77,0.19
			c0.66-2.65,0.99-5.2,0.99-7.69c0-1.17-0.07-2.32-0.22-3.46l-0.1-0.78l0,0c-0.28-2.23-0.57-4.55-1.05-7.02
			c-1.17-5.96-3.24-11.89-6.14-17.63c-5.56-11.02-14.44-18.93-26.27-23.42c-5.9-2.24-12.22-3.69-19.3-4.43
			c-3.42-0.36-6.78-0.54-10.01-0.54c-2.11,0-4.23,0.08-6.29,0.23c-9.61,0.72-17.86,3.09-25.17,7.26c-13,7.4-21.24,18.8-24.39,33.7
			c-0.86,4.08-1.29,8.19-1.29,12.31c0,9.02,2.06,18.11,6.14,27.14c1.01,2.22,2.08,4.26,3.1,6.22c0.52,1,1.05,1.99,1.55,2.99
			c1.2,2.39,2.62,5.5,3.2,8.52c0.18,0.95,0.27,1.93,0.27,2.97c0,1.84-0.29,3.84-0.87,6.05c-0.47,1.77-1.96,7.37-3.33,12.52
			c-0.69,2.57-1.34,5.04-1.83,6.86c-0.48,1.82-0.8,3-0.8,3l-1.26,4.75l0.73,0.23L38.1,302.86z"/>
		<path class="st3" d="M43.23,300.12l0.81,0.22c0,0,5.03-18.88,5.97-22.44c0.72-2.7,1.08-5.22,1.08-7.61c0-1.41-0.13-2.78-0.38-4.11
			c-0.73-3.82-2.39-7.42-3.74-10.11c-0.52-1.05-1.07-2.08-1.61-3.11c-1.01-1.91-2.03-3.86-2.95-5.91
			c-3.75-8.3-5.63-16.58-5.63-24.76c0-3.72,0.39-7.42,1.16-11.09c2.82-13.27,10.03-23.24,21.56-29.82
			c6.53-3.72,13.94-5.85,22.71-6.51c1.92-0.14,3.89-0.22,5.86-0.22c3.02,0,6.19,0.17,9.41,0.51c6.6,0.69,12.43,2.03,17.85,4.09
			c10.47,3.99,18.21,10.88,23.12,20.58c2.67,5.28,4.56,10.7,5.62,16.13c0.44,2.26,0.72,4.47,0.99,6.63l0.1,0.79l0,0
			c0.11,0.91,0.17,1.82,0.17,2.74c0,2.49-0.42,5.08-1.29,7.95l-0.11,0.37l0.21,0.33c2.42,3.8,4.76,7.54,6.75,10.72
			c0.67,1.07,1.16,2.07,1.53,3.06c0.48,1.29,0.71,2.6,0.71,3.88c0,3.15-1.39,6.13-3.98,8.22c-1.26,1.02-2.59,1.7-3.79,2.23
			l-0.59,0.26l0.11,0.64c0.09,0.52,0.13,1.04,0.13,1.54c0,1.54-0.39,3.02-1.17,4.33l-0.13,0.22l0.02,0.26
			c0.01,0.2,0.02,0.39,0.02,0.59c0,2.22-0.86,4.42-2.55,6.28l0-0.01l-0.1,0.1l-0.32,0.34l0.12,0.45c0.43,1.58,0.65,3.24,0.65,4.96
			c0,0.27-0.01,0.55-0.02,0.83v0c-0.13,3.12-1.1,5.86-2.77,8.06c-1.67,2.2-4.03,3.87-6.98,4.82c-2.09,0.67-4.33,1-6.88,1
			c-1.04,0-2.14-0.05-3.45-0.17c-1.45-0.13-3.27-0.27-5.12-0.32l-0.73-0.02l-0.12,0.72c-0.04,0.25-0.27,1.57-0.27,1.57l0,0
			c-0.25,1.44-1.67,9.87-2.41,14.25l-1.22,7.32l-68.13-21.6L43.23,300.12l0.81,0.22L43.23,300.12l-0.25,0.8l69.98,22.19l1.54-9.23
			c0.73-4.38,2.15-12.81,2.4-14.24l0,0c0,0,0.22-1.32,0.26-1.56l-0.83-0.14l-0.02,0.84c1.79,0.05,3.58,0.19,5.02,0.31
			c1.35,0.12,2.5,0.18,3.6,0.18c2.69,0,5.11-0.35,7.39-1.08c3.25-1.04,5.93-2.92,7.81-5.41c1.88-2.49,2.97-5.58,3.11-9.01v0
			c0.01-0.3,0.02-0.6,0.02-0.89c0-1.87-0.24-3.68-0.71-5.41l-0.81,0.22l0.62,0.57l0.1-0.1l0.01-0.01l0,0
			c1.94-2.13,2.99-4.74,2.99-7.41c0-0.23-0.01-0.47-0.02-0.7l-0.84,0.06l0.72,0.43c0.93-1.57,1.4-3.35,1.4-5.18
			c0-0.6-0.05-1.21-0.15-1.82l-0.83,0.14l0.34,0.77c1.26-0.56,2.73-1.31,4.15-2.46c2.98-2.4,4.61-5.88,4.61-9.53
			c0-1.48-0.27-3-0.82-4.47c-0.41-1.11-0.97-2.22-1.68-3.37c-1.99-3.19-4.33-6.93-6.75-10.74l-0.71,0.45l0.8,0.24
			c0.91-3,1.36-5.76,1.36-8.44c0-0.99-0.06-1.97-0.19-2.95l-0.01-0.08l-0.09-0.71l0,0c-0.27-2.16-0.55-4.41-1.01-6.74
			c-1.1-5.59-3.04-11.16-5.77-16.56c-5.08-10.06-13.2-17.29-24.02-21.39c-5.57-2.12-11.55-3.48-18.27-4.19
			c-3.27-0.34-6.5-0.52-9.58-0.52c-2.02,0-4.03,0.07-5.99,0.22c-8.98,0.67-16.66,2.87-23.42,6.73
			c-11.92,6.78-19.48,17.25-22.37,30.93c-0.8,3.78-1.2,7.6-1.2,11.44c0,8.44,1.94,16.97,5.77,25.46c0.95,2.11,1.99,4.09,3,6
			c0.54,1.03,1.08,2.05,1.59,3.08c1.32,2.64,2.91,6.12,3.59,9.67c0.23,1.22,0.35,2.48,0.35,3.79c0,2.22-0.34,4.59-1.02,7.18
			c-0.47,1.78-1.96,7.39-3.34,12.55c-0.69,2.58-1.34,5.05-1.83,6.88c-0.49,1.83-0.8,3.01-0.8,3.01l-0.21,0.77l0.76,0.24
			L43.23,300.12z"/>
		<path class="st4" d="M48,297.33l0.89,0.24l1.67-6.27c1.12-4.22,2.25-8.45,3.37-12.68c0.79-2.99,1.19-5.8,1.19-8.49
			c0-1.64-0.15-3.23-0.45-4.78c-0.81-4.24-2.59-8.11-4.03-10.99c-0.53-1.06-1.08-2.11-1.63-3.15c-0.97-1.84-1.96-3.73-2.83-5.67
			c-3.5-7.75-5.25-15.46-5.25-23.06c0-3.43,0.36-6.84,1.07-10.23c1.28-6.05,3.57-11.33,6.84-15.86c3.27-4.52,7.52-8.29,12.77-11.28
			c5.99-3.41,12.83-5.37,20.98-5.99c1.81-0.13,3.67-0.2,5.54-0.2c2.87,0,5.89,0.16,8.95,0.48c6.23,0.65,11.71,1.91,16.78,3.84
			c9.51,3.62,16.51,9.85,20.95,18.63c2.49,4.93,4.26,10,5.25,15.05c0.42,2.11,0.68,4.24,0.94,6.32l0.1,0.79l0,0
			c0.09,0.74,0.14,1.48,0.14,2.24c0,2.36-0.46,4.88-1.42,7.77l0,0c-0.05,0.16-0.13,0.4-0.13,0.7c0,0.23,0.04,0.47,0.13,0.69
			c0.08,0.23,0.2,0.46,0.35,0.7c2.55,4,5.04,7.97,7.14,11.33c0.53,0.84,0.91,1.62,1.19,2.37l0,0c0.33,0.87,0.48,1.75,0.48,2.59
			c0,2.02-0.88,3.88-2.57,5.25c-1.03,0.83-2.21,1.4-3.26,1.86c-0.66,0.29-1.32,0.49-1.94,0.68c-0.23,0.07-0.47,0.14-0.71,0.23
			l-0.9,0.3l0.32,0.89c0.13,0.35,0.29,0.7,0.41,0.98l0,0c0.41,0.92,0.6,1.79,0.6,2.6c0,1.21-0.41,2.28-1.23,3.21l-0.33,0.37
			l0.13,0.48c0.12,0.44,0.18,0.87,0.18,1.31c0,1.27-0.5,2.54-1.57,3.73c-0.19,0.21-0.4,0.42-0.62,0.64l0,0l-0.25,0.25l-0.01,0.01
			c-0.2,0.21-0.38,0.41-0.52,0.67c-0.14,0.25-0.23,0.57-0.22,0.86c0,0.36,0.1,0.65,0.19,0.92c0.55,1.52,0.83,3.18,0.83,4.94
			c0,0.22,0,0.45-0.01,0.67c-0.09,2.33-0.79,4.32-1.99,5.91c-1.2,1.59-2.91,2.79-5.12,3.5c-1.71,0.55-3.56,0.82-5.69,0.82
			c-0.92,0-1.91-0.05-3.1-0.15c-1.83-0.16-4.25-0.35-6.64-0.35c-0.27,0-0.53,0-0.8,0.01c-0.53,0.01-0.85,0.07-1.04,0.13l-0.32,0.1
			l-0.18,0.28c-0.13,0.19-0.29,0.53-0.47,1.15l0,0c-0.25,0.92-0.42,1.89-0.58,2.89l0,0l-0.13,0.79l0,0
			c-0.25,1.42-1.66,9.79-2.39,14.15l-0.51,3.05l-60.26-19.11L48,297.33l0.89,0.24L48,297.33l-0.28,0.88l62.29,19.75l0.86-5.15
			c0.73-4.35,2.14-12.74,2.39-14.14l0-0.02l0.13-0.77l0,0c0.17-1,0.32-1.92,0.54-2.7l0.02-0.07l-0.02,0.08
			c0.07-0.25,0.13-0.41,0.17-0.51l0.05-0.1l0.01-0.02l0,0l-0.77-0.51l0.28,0.88l0.02,0c0.05-0.01,0.21-0.04,0.51-0.04
			c0.26,0,0.51-0.01,0.77-0.01c2.29,0,4.66,0.18,6.48,0.34c1.23,0.11,2.28,0.16,3.26,0.16c2.29,0,4.35-0.29,6.26-0.91
			c2.52-0.81,4.58-2.23,6.02-4.14c1.44-1.91,2.26-4.29,2.36-6.95c0.01-0.25,0.01-0.5,0.01-0.75c0-1.96-0.31-3.84-0.94-5.57
			c-0.04-0.1-0.06-0.18-0.07-0.23l-0.01-0.07h-0.1l0.1,0.03l0-0.03h-0.1l0.1,0.03l-0.08-0.02l0.08,0.03l0-0.01l-0.08-0.02l0.08,0.03
			l0.01-0.01c0.01-0.03,0.08-0.12,0.22-0.26l-0.01,0.01l0.25-0.25l0,0c0.22-0.22,0.45-0.45,0.68-0.7c1.34-1.46,2.06-3.2,2.05-4.97
			c0-0.6-0.08-1.2-0.24-1.79l-0.89,0.24l0.69,0.61c1.11-1.24,1.7-2.79,1.7-4.43c0-1.1-0.26-2.23-0.76-3.36l0,0
			c-0.12-0.27-0.26-0.59-0.36-0.85l-0.87,0.31l0.29,0.88c0.21-0.07,0.44-0.14,0.67-0.21c0.62-0.19,1.35-0.42,2.13-0.75
			c1.11-0.48,2.44-1.12,3.68-2.11c2.11-1.69,3.27-4.12,3.26-6.69c0-1.07-0.2-2.16-0.6-3.23l0,0c-0.33-0.89-0.78-1.77-1.36-2.7
			c-2.1-3.36-4.59-7.34-7.14-11.35c-0.1-0.16-0.15-0.27-0.17-0.33l-0.02-0.07c0,0,0-0.01,0.03-0.11l0,0
			c1.01-3.03,1.52-5.75,1.52-8.36c0-0.84-0.05-1.66-0.16-2.48l-0.1-0.79c-0.26-2.08-0.53-4.26-0.96-6.45
			c-1.03-5.23-2.85-10.45-5.41-15.53c-4.63-9.17-12.06-15.77-21.95-19.52c-5.24-1.99-10.89-3.28-17.25-3.95
			c-3.12-0.33-6.2-0.49-9.14-0.49c-1.91,0-3.83,0.07-5.68,0.21c-8.37,0.63-15.51,2.66-21.76,6.22c-5.45,3.11-9.92,7.06-13.35,11.81
			c-3.43,4.75-5.82,10.29-7.15,16.56c-0.74,3.51-1.11,7.05-1.11,10.61c0,7.88,1.82,15.86,5.41,23.82c0.91,2,1.92,3.92,2.88,5.76
			c0.55,1.04,1.09,2.08,1.61,3.12c1.42,2.83,3.12,6.56,3.87,10.51c0.27,1.43,0.41,2.91,0.41,4.43c0,2.5-0.37,5.16-1.13,8.02
			c-1.12,4.23-2.24,8.45-3.37,12.67l-1.9,7.12l0.84,0.27L48,297.33z"/>
		<path class="st5" d="M56.97,278.94l1.01,0.27c0.81-3.07,1.3-6.18,1.3-9.34c0-1.8-0.16-3.61-0.51-5.43
			c-0.81-4.22-2.45-8.1-4.31-11.83c-1.46-2.92-3.05-5.71-4.35-8.59c-3.12-6.9-4.87-13.96-4.87-21.21c0-3.09,0.32-6.23,0.99-9.4
			c1.14-5.37,3.15-10.1,6.06-14.16c2.91-4.07,6.73-7.48,11.53-10.22c5.91-3.37,12.37-4.93,19.18-5.44c1.73-0.13,3.47-0.19,5.2-0.19
			c2.82,0,5.64,0.16,8.46,0.46c5.39,0.56,10.62,1.66,15.66,3.57c8.4,3.2,14.66,8.59,18.72,16.62c2.24,4.44,3.91,9.06,4.86,13.92
			c0.43,2.21,0.7,4.48,0.99,6.78c0.07,0.59,0.11,1.17,0.11,1.75c0,2.18-0.49,4.34-1.22,6.51c-0.21,0.63-0.31,1.25-0.31,1.87
			c0,1.2,0.4,2.33,1.06,3.36c2.37,3.71,4.7,7.44,7.04,11.17c0.34,0.55,0.64,1.11,0.85,1.67l0,0c0.17,0.45,0.25,0.88,0.25,1.27
			c0,0.44-0.09,0.84-0.28,1.22c-0.19,0.38-0.47,0.74-0.88,1.07c-0.64,0.52-1.49,0.94-2.38,1.33c-0.83,0.37-1.87,0.59-2.96,1.01
			c-0.79,0.31-1.46,0.77-1.94,1.4c-0.48,0.63-0.71,1.42-0.71,2.22c0,0.35,0.04,0.71,0.12,1.08c0.18,0.83,0.51,1.57,0.8,2.23
			c0.2,0.44,0.27,0.79,0.27,1.04c0,0.26-0.06,0.43-0.2,0.64c-0.15,0.2-0.42,0.44-0.87,0.68c-0.25,0.13-0.44,0.23-0.67,0.39
			c-0.11,0.09-0.25,0.19-0.38,0.38c-0.13,0.18-0.23,0.47-0.22,0.72c0,0.21,0.05,0.39,0.1,0.52c0.08,0.2,0.17,0.33,0.26,0.46
			c0.09,0.13,0.18,0.26,0.29,0.41c0.36,0.5,0.47,0.85,0.47,1.13c0,0.16-0.03,0.32-0.12,0.51c-0.09,0.19-0.24,0.42-0.47,0.68
			c-0.23,0.25-0.5,0.51-0.78,0.8c-0.56,0.58-1.01,1.21-1.32,1.9c-0.31,0.69-0.46,1.42-0.46,2.18c0,0.72,0.14,1.46,0.41,2.19
			l0.04,0.11l-0.04-0.11c0.42,1.16,0.6,2.36,0.6,3.62c0,0.18,0,0.35-0.01,0.53l0,0c-0.06,1.55-0.49,2.78-1.21,3.74
			c-0.73,0.97-1.78,1.7-3.24,2.18c-1.45,0.47-2.94,0.63-4.49,0.63c-0.9,0-1.81-0.06-2.74-0.14c-2.27-0.2-4.58-0.36-6.89-0.36
			c-0.28,0-0.57,0-0.85,0.01c-0.72,0.01-1.37,0.09-1.98,0.27c-0.91,0.26-1.69,0.77-2.27,1.48c-0.58,0.71-0.96,1.58-1.24,2.6
			c-0.38,1.36-0.57,2.71-0.79,3.99c-0.24,1.41-1.64,9.7-2.36,14.01l1.03,0.17l0.32-1l-53.4-16.93l-0.32,1l1.01,0.27
			c1.37-5.15,2.74-10.29,4.1-15.44L56.97,278.94l-1.01-0.27c-1.36,5.15-2.73,10.29-4.1,15.44l-0.26,0.97l55.51,17.6l0.2-1.19
			c0.72-4.31,2.12-12.61,2.36-14c0.23-1.32,0.41-2.61,0.74-3.79c0.16-0.57,0.34-1.02,0.54-1.38c0.3-0.53,0.61-0.83,1.05-1.06
			c0.44-0.22,1.05-0.37,1.92-0.38c0.27,0,0.54-0.01,0.81-0.01c2.22,0,4.46,0.15,6.71,0.35c0.97,0.09,1.94,0.15,2.93,0.15
			c1.7,0,3.42-0.18,5.14-0.73c1.8-0.57,3.27-1.56,4.28-2.91c1.02-1.35,1.56-3.04,1.63-4.92l0,0c0.01-0.2,0.01-0.41,0.01-0.61
			c0-1.46-0.22-2.92-0.73-4.33l0,0c-0.2-0.54-0.28-1.03-0.28-1.48c0-0.47,0.09-0.9,0.28-1.33c0.19-0.43,0.48-0.85,0.9-1.29
			c0.25-0.26,0.54-0.53,0.83-0.85c0.35-0.38,0.63-0.78,0.83-1.22c0.2-0.43,0.31-0.91,0.31-1.39c0-0.85-0.35-1.65-0.88-2.37
			c-0.14-0.19-0.25-0.34-0.28-0.4l-0.01-0.02l-0.32,0.17l0.35-0.11l-0.02-0.06l-0.32,0.17l0.35-0.11l-0.69,0.22l0.72,0
			c0-0.1-0.02-0.17-0.03-0.22l-0.69,0.22l0.72,0h-0.81l0.67,0.46c0.07-0.1,0.14-0.3,0.14-0.46h-0.81l0.67,0.46l-0.49-0.33l0.38,0.46
			c0.01-0.01,0.06-0.05,0.11-0.12l-0.49-0.33l0.38,0.46l-0.08-0.1l0.08,0.1l0.01-0.01l-0.08-0.1l0.08,0.1
			c0.01-0.01,0.17-0.1,0.41-0.23c0.65-0.34,1.19-0.76,1.59-1.3c0.4-0.54,0.61-1.21,0.61-1.87c0-0.64-0.17-1.26-0.45-1.89
			c-0.29-0.65-0.55-1.26-0.67-1.82c-0.05-0.24-0.07-0.45-0.07-0.64c0-0.43,0.1-0.7,0.29-0.96c0.19-0.25,0.51-0.5,1.03-0.71
			c0.87-0.35,1.93-0.57,3.03-1.04c0.94-0.41,1.96-0.9,2.86-1.62c0.63-0.5,1.12-1.11,1.45-1.78c0.33-0.67,0.5-1.41,0.5-2.15
			c0-0.67-0.13-1.34-0.38-2.01l0,0c-0.28-0.74-0.64-1.42-1.04-2.05c-2.33-3.74-4.68-7.47-7.05-11.19c-0.5-0.78-0.73-1.49-0.73-2.23
			c0-0.38,0.06-0.78,0.21-1.21c0.77-2.3,1.32-4.68,1.32-7.18c0-0.67-0.04-1.34-0.13-2.02c-0.29-2.28-0.56-4.61-1.01-6.92
			c-0.99-5.06-2.73-9.87-5.05-14.46c-4.28-8.49-11.04-14.3-19.85-17.64c-5.24-1.99-10.66-3.12-16.19-3.7
			c-2.89-0.3-5.78-0.47-8.68-0.47c-1.78,0-3.57,0.06-5.36,0.2c-7.03,0.53-13.82,2.15-20.07,5.71c-5.03,2.87-9.1,6.5-12.19,10.82
			c-3.1,4.32-5.22,9.33-6.41,14.95c-0.7,3.31-1.04,6.59-1.04,9.83c0,7.59,1.84,14.96,5.06,22.08c1.36,2.99,2.96,5.81,4.39,8.66
			c1.83,3.65,3.37,7.34,4.13,11.28c0.32,1.68,0.47,3.36,0.47,5.03c0,2.94-0.46,5.87-1.23,8.8L56.97,278.94z"/>
		<g>
			<path class="st5" d="M91.77,196.63c-1.29,0-2.36,0.94-2.57,2.17H75.14l-6.27,5.7c-0.35-0.17-0.73-0.27-1.14-0.27
				c-1.44,0-2.62,1.17-2.62,2.62c0,1.44,1.17,2.62,2.62,2.62s2.62-1.17,2.62-2.62c0-0.7-0.28-1.33-0.73-1.8l5.87-5.34H89.2
				c0.21,1.23,1.28,2.17,2.57,2.17c1.44,0,2.62-1.17,2.62-2.62C94.38,197.8,93.21,196.63,91.77,196.63z"/>
			<path class="st5" d="M90.91,227.22c-1.44,0-2.62,1.17-2.62,2.62c0,0.62,0.23,1.19,0.59,1.64l-7.09,6.96v3.96
				c-1.17,0.26-2.04,1.3-2.04,2.55c0,1.44,1.17,2.62,2.62,2.62s2.62-1.17,2.62-2.62c0-1.33-1-2.42-2.29-2.58v-3.54l6.87-6.75
				c0.39,0.24,0.85,0.38,1.35,0.38c1.44,0,2.62-1.17,2.62-2.62C93.52,228.4,92.35,227.22,90.91,227.22z"/>
			<path class="st5" d="M84.86,232.21c1.44,0,2.62-1.17,2.62-2.62c0-1.44-1.17-2.62-2.62-2.62c-1.04,0-1.94,0.62-2.36,1.5h-3.4
				l-4.84-4.31l-3.22-0.18c-0.28-1.14-1.3-2-2.53-2c-1.44,0-2.62,1.17-2.62,2.62c0,1.44,1.17,2.62,2.62,2.62
				c1.35,0,2.44-1.02,2.59-2.33l2.8,0.16l4.86,4.33h3.5c-0.01,0.07-0.02,0.14-0.02,0.22C82.24,231.04,83.41,232.21,84.86,232.21z"/>
			<path class="st5" d="M77.19,247.57v-8.07l-4.16-4.36h-5.13l-4.41-4.06l-0.16-0.75c1.42-0.03,2.56-1.18,2.56-2.61
				c0-1.44-1.17-2.62-2.62-2.62c-1.44,0-2.62,1.17-2.62,2.62c0,1.13,0.72,2.08,1.72,2.45l0.29,1.38l4.88,4.5h5.1l3.64,3.82v7.86
				c-1.03,0.35-1.77,1.32-1.77,2.46c0,1.44,1.17,2.62,2.62,2.62s2.62-1.17,2.62-2.62C79.75,248.75,78.61,247.6,77.19,247.57z"/>
			<path class="st5" d="M63.08,223.45c1.44,0,2.62-1.17,2.62-2.62c0-1.44-1.17-2.62-2.62-2.62c-0.58,0-1.1,0.19-1.54,0.51l-1.57-1.5
				v-8.56l13.34-13.71h29.93l8.16,7.46c-0.32,0.43-0.52,0.97-0.52,1.55c0,1.44,1.17,2.62,2.62,2.62s2.62-1.17,2.62-2.62
				c0-1.44-1.17-2.62-2.62-2.62c-0.54,0-1.03,0.16-1.45,0.44l-8.46-7.74H72.94L59.08,208.3v9.32l1.84,1.75
				c-0.28,0.42-0.45,0.92-0.45,1.46C60.47,222.28,61.64,223.45,63.08,223.45z"/>
			<path class="st5" d="M62.5,213.19c0,1.44,1.17,2.62,2.62,2.62c1.29,0,2.36-0.94,2.57-2.17h3.74l7.59,7.01
				c-0.47,0.47-0.75,1.12-0.75,1.83c0,1.44,1.17,2.62,2.62,2.62s2.62-1.17,2.62-2.62c0-1.44-1.17-2.62-2.62-2.62
				c-0.4,0-0.77,0.1-1.11,0.25l-7.99-7.38h-4.1c-0.21-1.23-1.28-2.17-2.57-2.17C63.67,210.57,62.5,211.74,62.5,213.19z"/>
			<path class="st5" d="M90.57,222.98c0-1.44-1.17-2.62-2.62-2.62c-0.45,0-0.86,0.12-1.23,0.32l-9.01-8.36v-4.96
				c1.23-0.21,2.17-1.28,2.17-2.57c0-1.44-1.17-2.62-2.62-2.62s-2.62,1.17-2.62,2.62c0,1.29,0.94,2.36,2.17,2.57v5.35l9.2,8.53
				c-0.41,0.46-0.67,1.06-0.67,1.73c0,1.44,1.17,2.62,2.62,2.62C89.4,225.6,90.57,224.42,90.57,222.98z"/>
			<path class="st5" d="M120.02,209.95c0-1.42-1.15-2.57-2.57-2.57c-1.42,0-2.57,1.15-2.57,2.57c0,1.26,0.91,2.31,2.12,2.52v6.75
				l-7.35,7.3l-10.72,0.23c-0.11-1.34-1.22-2.4-2.59-2.4c-1.44,0-2.62,1.17-2.62,2.62c0,1.44,1.17,2.62,2.62,2.62
				c1.21,0,2.21-0.82,2.51-1.93l11.18-0.24l7.87-7.82v-7.13C119.1,212.26,120.02,211.22,120.02,209.95z"/>
			<path class="st5" d="M96.17,221.67h9.74l4.19-4.1c0.41,0.27,0.9,0.43,1.42,0.43c1.44,0,2.62-1.17,2.62-2.62
				c0-1.44-1.17-2.62-2.62-2.62c-1.44,0-2.62,1.17-2.62,2.62c0,0.59,0.2,1.13,0.54,1.57l-3.91,3.81H96.5l-4.42-3.7
				c0.39-0.46,0.63-1.04,0.63-1.69c0-1.44-1.17-2.62-2.62-2.62s-2.62,1.17-2.62,2.62c0,1.44,1.17,2.62,2.62,2.62
				c0.47,0,0.9-0.13,1.28-0.35L96.17,221.67z"/>
			<path class="st5" d="M86.77,207.51c-0.21-1.23-1.28-2.17-2.57-2.17c-1.44,0-2.62,1.17-2.62,2.62c0,1.44,1.17,2.62,2.62,2.62
				c1.29,0,2.36-0.94,2.57-2.17h5.56l7.29-6.53c0.36,0.19,0.76,0.3,1.19,0.3c1.44,0,2.62-1.17,2.62-2.62c0-1.44-1.17-2.62-2.62-2.62
				c-1.44,0-2.62,1.17-2.62,2.62c0,0.68,0.27,1.29,0.69,1.76l-6.9,6.19H86.77z"/>
			<path class="st5" d="M104.13,206.02c0.44,0.34,0.99,0.55,1.59,0.55c1.44,0,2.62-1.17,2.62-2.62c0-1.44-1.17-2.62-2.62-2.62
				s-2.62,1.17-2.62,2.62c0,0.52,0.15,0.99,0.41,1.4l-3.81,3.9v3.55c-1.23,0.21-2.17,1.28-2.17,2.57c0,1.44,1.17,2.62,2.62,2.62
				s2.62-1.17,2.62-2.62c0-1.29-0.94-2.36-2.17-2.57v-3.18L104.13,206.02z"/>
		</g>
	</g>
	<g>
		<g>
			<path class="st5" d="M456.11,211.83c3.55,0.06,7.06,0.07,10.53,0.04c3.47-0.03,6.94-0.25,10.44-0.67
				c-0.12,0.47-0.21,0.93-0.27,1.38c-0.06,0.44-0.09,0.99-0.09,1.64c0,0.48,0.05,0.93,0.13,1.38c0.09,0.44,0.16,0.9,0.22,1.38
				c-2.31-0.29-4.71-0.52-7.2-0.67c-2.49-0.15-4.68-0.22-6.57-0.22c-1.19,0-2.4,0.01-3.64,0.05c-1.24,0.03-2.43,0.07-3.55,0.13
				c-0.06,1.9-0.1,3.83-0.13,5.82c-0.03,1.99-0.04,3.93-0.04,5.82c0,1.18,0.01,2.44,0.04,3.78c0.03,1.33,0.06,2.65,0.09,3.95
				c0.03,1.3,0.06,2.49,0.09,3.55c0.03,1.07,0.04,1.9,0.04,2.49c2.84,0,6.13-0.04,9.86-0.13c3.73-0.09,8.23-0.4,13.5-0.93
				c-0.12,0.48-0.21,0.93-0.27,1.38c-0.06,0.44-0.09,0.99-0.09,1.64c0,0.65,0.03,1.17,0.09,1.55c0.06,0.39,0.15,0.82,0.27,1.29
				c-2.07-0.3-4.13-0.46-6.17-0.49c-2.04-0.03-4.1-0.04-6.17-0.04c-3.44,0-6.87,0.06-10.31,0.18c-3.44,0.12-6.87,0.24-10.3,0.36
				c0.12-1.66,0.24-3.35,0.35-5.06c0.12-1.72,0.22-3.74,0.31-6.09c0.09-2.34,0.16-5.15,0.22-8.44c0.06-3.29,0.09-7.36,0.09-12.22
				c0-2.19-0.01-4.56-0.04-7.11c-0.03-2.55-0.08-5.12-0.13-7.73c-0.06-2.6-0.13-5.17-0.22-7.68c-0.09-2.52-0.19-4.87-0.31-7.06
				c3.14,0.3,6.23,0.46,9.28,0.49c3.05,0.03,6.14,0.04,9.28,0.04c2.25,0,4.5-0.03,6.75-0.09c2.25-0.06,4.5-0.21,6.75-0.44
				c-0.12,0.48-0.21,0.96-0.27,1.47c-0.06,0.5-0.09,1.05-0.09,1.64c0,0.65,0.03,1.17,0.09,1.55c0.06,0.39,0.15,0.82,0.27,1.29
				c-0.83-0.18-1.67-0.32-2.53-0.44s-1.82-0.24-2.89-0.36c-1.07-0.12-2.3-0.21-3.69-0.27c-1.39-0.06-3.06-0.09-5.02-0.09
				c-1.6,0-2.96,0-4.09,0c-1.13,0-2.64,0.06-4.53,0.18c-0.06,0.89-0.1,1.67-0.13,2.35c-0.03,0.68-0.05,1.38-0.05,2.09
				c0,0.71,0,1.53,0,2.44s0,2.03,0,3.33c0,1.42,0,2.61,0,3.55s0,1.82,0,2.62s0.01,1.6,0.05,2.4
				C456.09,209.66,456.11,210.65,456.11,211.83z"/>
			<path class="st5" d="M240.81,198.2c-0.53-0.83-1.26-1.85-2.18-3.06c-0.92-1.21-2.13-2.37-3.64-3.47
				c-1.51-1.09-3.41-2.03-5.69-2.8c-2.28-0.77-5.05-1.16-8.31-1.16c-3.26,0-6.35,0.56-9.28,1.69c-2.93,1.13-5.52,2.83-7.77,5.11
				c-2.25,2.28-4.04,5.12-5.37,8.53c-1.33,3.41-2,7.42-2,12.04c0,4.68,0.71,8.78,2.13,12.3c1.42,3.52,3.32,6.46,5.69,8.79
				c2.37,2.34,5.08,4.1,8.13,5.29c3.05,1.18,6.2,1.78,9.46,1.78c0.3,0,0.92-0.01,1.87-0.04c0.95-0.03,2.07-0.15,3.38-0.36
				c1.3-0.21,2.68-0.55,4.13-1.02c1.45-0.47,2.83-1.12,4.13-1.95c0.06-3.55,0.09-6.4,0.09-8.53c0-2.13-0.02-3.92-0.05-5.37
				c-0.03-1.45-0.07-2.72-0.13-3.82c-0.06-1.1-0.18-2.35-0.36-3.78c0.77,0.18,1.54,0.31,2.31,0.4c0.77,0.09,1.75,0.13,2.93,0.13
				c1.12,0,2.03-0.06,2.71-0.18c0.68-0.12,1.35-0.24,2-0.35c-0.24,2.67-0.44,5.39-0.62,8.17c-0.18,2.78-0.27,5.86-0.27,9.24
				c0,1.07,0.01,2.16,0.04,3.29c0.03,1.13,0.1,2.19,0.22,3.2c-2.07,0.71-4.06,1.38-5.95,2c-1.9,0.62-3.82,1.16-5.77,1.6
				c-1.95,0.44-3.98,0.78-6.09,1.02c-2.1,0.24-4.4,0.35-6.89,0.35c-4.92,0-9.42-0.77-13.5-2.31s-7.6-3.72-10.53-6.53
				c-2.93-2.81-5.2-6.17-6.8-10.08c-1.6-3.91-2.4-8.26-2.4-13.06c0-4.2,0.68-8.2,2.04-11.99c1.36-3.79,3.46-7.12,6.31-9.99
				c2.84-2.87,6.42-5.15,10.75-6.84c4.32-1.69,9.42-2.53,15.28-2.53c4.2,0,8.47,0.48,12.79,1.42c4.32,0.95,8.05,2.22,11.19,3.82
				c-1.01,2.07-1.72,3.89-2.13,5.46c-0.42,1.57-0.71,2.77-0.89,3.6H240.81z"/>
			<path class="st5" d="M431.4,246.48c0-1.6-0.1-3.78-0.31-6.53c-0.21-2.75-0.44-5.74-0.71-8.97c-0.27-3.23-0.56-6.54-0.89-9.95
				c-0.33-3.4-0.62-6.53-0.89-9.37c-0.27-2.84-0.5-5.24-0.71-7.2c-0.21-1.95-0.34-3.14-0.4-3.55c-3.2,5.81-6.32,11.61-9.37,17.41
				c-3.05,5.81-6.06,11.67-9.02,17.59c-0.71,1.42-1.29,2.64-1.73,3.64c-0.44,1.01-0.84,1.91-1.2,2.71c-0.36,0.8-0.67,1.53-0.93,2.18
				c-0.27,0.65-0.52,1.33-0.76,2.04c-0.59-0.12-1.01-0.18-1.24-0.18c-0.18,0-0.35,0.01-0.53,0.05c-0.18,0.03-0.39,0.07-0.62,0.13
				c-0.83-1.84-1.53-3.4-2.09-4.71c-0.56-1.3-1.26-2.72-2.09-4.27c-1.54-3.02-3.14-6.1-4.8-9.24c-1.66-3.14-3.3-6.25-4.93-9.33
				c-1.63-3.08-3.24-6.08-4.84-9.02c-1.6-2.93-3.14-5.67-4.62-8.22c-0.36,2.25-0.7,4.72-1.02,7.42c-0.33,2.7-0.62,5.48-0.89,8.35
				c-0.27,2.87-0.52,5.74-0.75,8.62c-0.24,2.87-0.43,5.6-0.58,8.17c-0.15,2.58-0.25,4.93-0.31,7.06c-0.06,2.13-0.09,3.85-0.09,5.15
				c-0.71-0.18-1.3-0.31-1.78-0.4c-0.47-0.09-1.01-0.13-1.6-0.13c-0.89,0-1.7,0.06-2.44,0.18c-0.74,0.12-1.35,0.24-1.82,0.36
				c0.12-0.71,0.4-2.28,0.84-4.71c0.44-2.43,0.95-5.39,1.51-8.88c0.56-3.49,1.17-7.36,1.82-11.59c0.65-4.23,1.29-8.53,1.91-12.88
				c0.62-4.35,1.2-8.59,1.73-12.7c0.53-4.12,0.98-7.8,1.33-11.06c0.59,0.12,1.1,0.18,1.51,0.18c0.24,0,0.52-0.01,0.84-0.05
				c0.33-0.03,0.64-0.07,0.93-0.13c0.41,1.01,1.21,2.67,2.4,4.97c1.18,2.31,2.56,4.98,4.13,8c1.57,3.02,3.27,6.26,5.11,9.73
				c1.84,3.46,3.64,6.81,5.42,10.04c1.78,3.23,3.42,6.17,4.93,8.84c1.51,2.67,2.74,4.77,3.69,6.31c2.37-4.44,4.43-8.26,6.17-11.46
				c1.75-3.2,3.26-5.98,4.53-8.35c1.27-2.37,2.37-4.41,3.29-6.13c0.92-1.72,1.76-3.3,2.53-4.75c0.77-1.45,1.51-2.86,2.22-4.22
				c0.71-1.36,1.51-2.87,2.4-4.53c0.53-1.07,0.98-1.94,1.33-2.62c0.35-0.68,0.67-1.32,0.93-1.91c0.27-0.59,0.55-1.18,0.84-1.78
				c0.3-0.59,0.62-1.3,0.98-2.13c0.29,0.06,0.56,0.1,0.8,0.13c0.24,0.03,0.5,0.05,0.8,0.05c0.24,0,0.49-0.01,0.76-0.05
				c0.27-0.03,0.58-0.07,0.93-0.13c0.53,4.68,1.09,9.74,1.69,15.19c0.59,5.45,1.21,10.85,1.87,16.21
				c0.65,5.36,1.29,10.48,1.91,15.37c0.62,4.89,1.23,9.11,1.82,12.66c0.06,0.3,0.12,0.62,0.18,0.98c0.06,0.35,0.18,0.83,0.36,1.42
				c-1.19-0.18-2.1-0.31-2.76-0.4c-0.65-0.09-1.39-0.13-2.22-0.13c-1.3,0-2.35,0.06-3.15,0.18S432.17,246.36,431.4,246.48z"/>
			<g>
				<g>
					<path class="st5" d="M294.66,186.44l-0.19,0.43l-25.78,57.84h8.49l6.39-14.6h29.14l6.31,14.6h8.41l-25.98-58.27H294.66z
						 M309.72,223.22l-23.17,0l11.58-26.63L309.72,223.22z"/>
					<polygon class="st5" points="333.97,186.44 333.97,187.17 333.97,244.71 342.07,244.71 342.07,186.44 					"/>
				</g>
				<g>
					<g>
						<path class="st5" d="M353.02,257.33h-92.13V231.4l3.72-2.2v-24.03l-3.72-3.36v-28.65h92.13v28.66l-3.38,2.54v24.53l3.38,2.54
							V257.33z M261.22,257h91.46v-25.42l-3.38-2.54v-24.86l3.38-2.54v-28.16h-91.46v28.17l3.72,3.36v24.37l-3.72,2.2V257z"/>
					</g>
					<g>
						<g>
							<rect x="268.59" y="164.63" class="st5" width="0.67" height="5.29"/>
						</g>
						<g>
							<rect x="271.16" y="164.63" class="st5" width="0.67" height="5.29"/>
						</g>
						<g>
							<rect x="273.74" y="164.63" class="st5" width="0.67" height="5.29"/>
						</g>
						<g>
							<rect x="276.31" y="164.63" class="st5" width="0.67" height="5.29"/>
						</g>
						<g>
							<rect x="278.88" y="164.63" class="st5" width="0.67" height="5.29"/>
						</g>
						<g>
							<rect x="281.45" y="164.63" class="st5" width="0.67" height="5.29"/>
						</g>
						<g>
							<rect x="284.02" y="164.63" class="st5" width="0.67" height="5.29"/>
						</g>
						<g>
							<rect x="286.59" y="164.63" class="st5" width="0.67" height="5.29"/>
						</g>
						<g>
							<rect x="289.16" y="164.63" class="st5" width="0.67" height="5.29"/>
						</g>
						<g>
							<rect x="291.73" y="164.63" class="st5" width="0.67" height="5.29"/>
						</g>
						<g>
							<rect x="294.31" y="164.63" class="st5" width="0.67" height="5.29"/>
						</g>
						<g>
							<rect x="296.88" y="164.63" class="st5" width="0.67" height="5.29"/>
						</g>
						<g>
							<rect x="299.45" y="164.63" class="st5" width="0.67" height="5.29"/>
						</g>
						<g>
							<rect x="302.02" y="164.63" class="st5" width="0.67" height="5.29"/>
						</g>
						<g>
							<rect x="304.59" y="164.63" class="st5" width="0.67" height="5.29"/>
						</g>
						<g>
							<rect x="307.16" y="164.63" class="st5" width="0.67" height="5.29"/>
						</g>
						<g>
							<rect x="309.73" y="164.63" class="st5" width="0.67" height="5.29"/>
						</g>
						<g>
							<rect x="312.3" y="164.63" class="st5" width="0.67" height="5.29"/>
						</g>
						<g>
							<rect x="314.87" y="164.63" class="st5" width="0.67" height="5.29"/>
						</g>
						<g>
							<rect x="317.45" y="164.63" class="st5" width="0.67" height="5.29"/>
						</g>
						<g>
							<rect x="320.02" y="164.63" class="st5" width="0.67" height="5.29"/>
						</g>
						<g>
							<rect x="322.59" y="164.63" class="st5" width="0.67" height="5.29"/>
						</g>
						<g>
							<rect x="325.16" y="164.63" class="st5" width="0.67" height="5.29"/>
						</g>
						<g>
							<rect x="327.73" y="164.63" class="st5" width="0.67" height="5.29"/>
						</g>
						<g>
							<rect x="330.3" y="164.63" class="st5" width="0.67" height="5.29"/>
						</g>
						<g>
							<rect x="332.87" y="164.63" class="st5" width="0.67" height="5.29"/>
						</g>
						<g>
							<rect x="335.44" y="164.63" class="st5" width="0.67" height="5.29"/>
						</g>
						<g>
							<rect x="338.01" y="164.63" class="st5" width="0.67" height="5.29"/>
						</g>
						<g>
							<rect x="340.59" y="164.63" class="st5" width="0.67" height="5.29"/>
						</g>
						<g>
							<rect x="343.16" y="164.63" class="st5" width="0.67" height="5.29"/>
						</g>
					</g>
					<g>
						<g>
							
								<rect x="359.7" y="222.62" transform="matrix(-1.836970e-16 1 -1 -1.836970e-16 585.334 -134.7226)" class="st5" width="0.66" height="5.37"/>
						</g>
						<g>
							
								<rect x="359.7" y="225.16" transform="matrix(-1.836970e-16 1 -1 -1.836970e-16 587.8696 -132.1871)" class="st5" width="0.66" height="5.37"/>
						</g>
						<g>
							
								<rect x="359.7" y="227.69" transform="matrix(-1.836970e-16 1 -1 -1.836970e-16 590.4051 -129.6515)" class="st5" width="0.66" height="5.37"/>
						</g>
						<g>
							
								<rect x="359.7" y="230.23" transform="matrix(-1.836970e-16 1 -1 -1.836970e-16 592.9406 -127.116)" class="st5" width="0.66" height="5.37"/>
						</g>
						<g>
							
								<rect x="359.7" y="232.76" transform="matrix(-1.836970e-16 1 -1 -1.836970e-16 595.4762 -124.5804)" class="st5" width="0.66" height="5.37"/>
						</g>
						<g>
							
								<rect x="359.7" y="235.3" transform="matrix(-1.836970e-16 1 -1 -1.836970e-16 598.0117 -122.0449)" class="st5" width="0.66" height="5.37"/>
						</g>
						<g>
							
								<rect x="359.7" y="237.84" transform="matrix(-1.836970e-16 1 -1 -1.836970e-16 600.5473 -119.5093)" class="st5" width="0.66" height="5.37"/>
						</g>
						<g>
							
								<rect x="359.7" y="240.37" transform="matrix(-1.836970e-16 1 -1 -1.836970e-16 603.0828 -116.9738)" class="st5" width="0.66" height="5.37"/>
						</g>
						<g>
							
								<rect x="359.7" y="242.91" transform="matrix(-1.836970e-16 1 -1 -1.836970e-16 605.6183 -114.4382)" class="st5" width="0.66" height="5.37"/>
						</g>
						<g>
							
								<rect x="359.7" y="245.44" transform="matrix(-1.836970e-16 1 -1 -1.836970e-16 608.1539 -111.9027)" class="st5" width="0.66" height="5.37"/>
						</g>
						<g>
							
								<rect x="359.7" y="247.98" transform="matrix(-1.836970e-16 1 -1 -1.836970e-16 610.6895 -109.3671)" class="st5" width="0.66" height="5.37"/>
						</g>
						<g>
							
								<rect x="359.7" y="250.51" transform="matrix(-1.836970e-16 1 -1 -1.836970e-16 613.225 -106.8316)" class="st5" width="0.66" height="5.37"/>
						</g>
						<g>
							
								<rect x="359.7" y="253.05" transform="matrix(-1.836970e-16 1 -1 -1.836970e-16 615.7606 -104.2961)" class="st5" width="0.66" height="5.37"/>
						</g>
					</g>
					<g>
						<g>
							<rect x="348.91" y="174.7" class="st5" width="2.46" height="2.43"/>
						</g>
						<g>
							<rect x="262.83" y="174.7" class="st5" width="2.46" height="2.43"/>
						</g>
						<g>
							<rect x="348.91" y="253.29" class="st5" width="2.46" height="2.43"/>
						</g>
						<g>
							<rect x="262.83" y="253.29" class="st5" width="2.46" height="2.43"/>
						</g>
					</g>
					<g>
						<g>
							<path class="st5" d="M360.14,177.85c0,0.71-0.58,1.28-1.3,1.28s-1.3-0.57-1.3-1.28c0-0.71,0.58-1.28,1.3-1.28
								S360.14,177.14,360.14,177.85z"/>
						</g>
						<g>
							<path class="st5" d="M360.14,182.33c0,0.71-0.58,1.28-1.3,1.28s-1.3-0.57-1.3-1.28s0.58-1.28,1.3-1.28
								S360.14,181.62,360.14,182.33z"/>
						</g>
						<g>
							<path class="st5" d="M360.14,186.82c0,0.71-0.58,1.28-1.3,1.28s-1.3-0.57-1.3-1.28c0-0.71,0.58-1.28,1.3-1.28
								S360.14,186.11,360.14,186.82z"/>
						</g>
						<g>
							<path class="st5" d="M360.14,191.3c0,0.71-0.58,1.28-1.3,1.28s-1.3-0.57-1.3-1.28c0-0.71,0.58-1.28,1.3-1.28
								S360.14,190.59,360.14,191.3z"/>
						</g>
						<g>
							<path class="st5" d="M360.14,195.78c0,0.71-0.58,1.28-1.3,1.28s-1.3-0.57-1.3-1.28c0-0.71,0.58-1.28,1.3-1.28
								S360.14,195.08,360.14,195.78z"/>
						</g>
						<g>
							<path class="st5" d="M360.14,200.27c0,0.71-0.58,1.28-1.3,1.28s-1.3-0.57-1.3-1.28c0-0.71,0.58-1.28,1.3-1.28
								S360.14,199.56,360.14,200.27z"/>
						</g>
						<g>
							<path class="st5" d="M360.14,204.75c0,0.71-0.58,1.28-1.3,1.28s-1.3-0.57-1.3-1.28c0-0.71,0.58-1.28,1.3-1.28
								S360.14,204.04,360.14,204.75z"/>
						</g>
						<g>
							<path class="st5" d="M360.14,209.24c0,0.71-0.58,1.28-1.3,1.28s-1.3-0.57-1.3-1.28c0-0.71,0.58-1.28,1.3-1.28
								S360.14,208.53,360.14,209.24z"/>
						</g>
						<g>
							<path class="st5" d="M360.14,213.72c0,0.71-0.58,1.28-1.3,1.28s-1.3-0.57-1.3-1.28c0-0.71,0.58-1.28,1.3-1.28
								S360.14,213.01,360.14,213.72z"/>
						</g>
						<g>
							<path class="st5" d="M360.14,218.2c0,0.71-0.58,1.28-1.3,1.28s-1.3-0.57-1.3-1.28c0-0.71,0.58-1.28,1.3-1.28
								S360.14,217.5,360.14,218.2z"/>
						</g>
					</g>
					<g>
						<g>
							
								<rect x="252.06" y="204.64" transform="matrix(6.123234e-17 -1 1 6.123234e-17 45.0705 459.7161)" class="st5" width="0.66" height="5.37"/>
						</g>
						<g>
							
								<rect x="252.06" y="202.1" transform="matrix(6.123234e-17 -1 1 6.123234e-17 47.606 457.1806)" class="st5" width="0.66" height="5.37"/>
						</g>
						<g>
							
								<rect x="252.06" y="199.57" transform="matrix(6.123234e-17 -1 1 6.123234e-17 50.1416 454.6451)" class="st5" width="0.66" height="5.37"/>
						</g>
						<g>
							
								<rect x="252.06" y="197.03" transform="matrix(6.123234e-17 -1 1 6.123234e-17 52.6771 452.1095)" class="st5" width="0.66" height="5.37"/>
						</g>
						<g>
							
								<rect x="252.06" y="194.5" transform="matrix(6.123234e-17 -1 1 6.123234e-17 55.2127 449.5739)" class="st5" width="0.66" height="5.37"/>
						</g>
						<g>
							
								<rect x="252.06" y="191.96" transform="matrix(6.123234e-17 -1 1 6.123234e-17 57.7482 447.0384)" class="st5" width="0.66" height="5.37"/>
						</g>
						<g>
							
								<rect x="252.06" y="189.43" transform="matrix(6.123234e-17 -1 1 6.123234e-17 60.2838 444.5029)" class="st5" width="0.66" height="5.37"/>
						</g>
						<g>
							
								<rect x="252.06" y="186.89" transform="matrix(6.123234e-17 -1 1 6.123234e-17 62.8193 441.9673)" class="st5" width="0.66" height="5.37"/>
						</g>
						<g>
							
								<rect x="252.06" y="184.36" transform="matrix(6.123234e-17 -1 1 6.123234e-17 65.3548 439.4318)" class="st5" width="0.66" height="5.37"/>
						</g>
						<g>
							
								<rect x="252.06" y="181.82" transform="matrix(6.123234e-17 -1 1 6.123234e-17 67.8904 436.8962)" class="st5" width="0.66" height="5.37"/>
						</g>
						<g>
							
								<rect x="252.06" y="179.28" transform="matrix(6.123234e-17 -1 1 6.123234e-17 70.4259 434.3607)" class="st5" width="0.66" height="5.37"/>
						</g>
						<g>
							
								<rect x="252.06" y="176.75" transform="matrix(6.123234e-17 -1 1 6.123234e-17 72.9615 431.8251)" class="st5" width="0.66" height="5.37"/>
						</g>
						<g>
							
								<rect x="252.06" y="174.21" transform="matrix(6.123234e-17 -1 1 6.123234e-17 75.497 429.2896)" class="st5" width="0.66" height="5.37"/>
						</g>
					</g>
					<g>
						<g>
							<ellipse class="st5" cx="253.58" cy="254.11" rx="1.3" ry="1.28"/>
						</g>
						<g>
							<ellipse class="st5" cx="253.58" cy="249.63" rx="1.3" ry="1.28"/>
						</g>
						<g>
							<path class="st5" d="M252.28,245.14c0-0.71,0.58-1.28,1.3-1.28c0.72,0,1.3,0.57,1.3,1.28c0,0.71-0.58,1.28-1.3,1.28
								C252.86,246.43,252.28,245.85,252.28,245.14z"/>
						</g>
						<g>
							<ellipse class="st5" cx="253.58" cy="240.66" rx="1.3" ry="1.28"/>
						</g>
						<g>
							<ellipse class="st5" cx="253.58" cy="236.18" rx="1.3" ry="1.28"/>
						</g>
						<g>
							<ellipse class="st5" cx="253.58" cy="231.69" rx="1.3" ry="1.28"/>
						</g>
						<g>
							<path class="st5" d="M252.28,227.21c0-0.71,0.58-1.28,1.3-1.28c0.72,0,1.3,0.57,1.3,1.28c0,0.71-0.58,1.28-1.3,1.28
								C252.86,228.49,252.28,227.92,252.28,227.21z"/>
						</g>
						<g>
							<ellipse class="st5" cx="253.58" cy="222.72" rx="1.3" ry="1.28"/>
						</g>
						<g>
							<ellipse class="st5" cx="253.58" cy="218.24" rx="1.3" ry="1.28"/>
						</g>
						<g>
							<ellipse class="st5" cx="253.58" cy="213.76" rx="1.3" ry="1.28"/>
						</g>
					</g>
					<g>
						<rect x="268.83" y="178.98" class="st5" width="74.8" height="0.14"/>
					</g>
					<g>
						<rect x="269.5" y="251.55" class="st5" width="74.8" height="0.19"/>
					</g>
				</g>
			</g>
		</g>
		<g>
			<path class="st5" d="M461.87,276.82h1.05v-6.66l6.43,7v-9.21h-1.05v6.73l-6.43-7.08V276.82z M455.42,276.07
				c-0.98,0-1.86-0.37-2.57-1.08c-0.69-0.71-1.07-1.59-1.07-2.58s0.37-1.9,1.07-2.6c0.68-0.7,1.59-1.07,2.57-1.07
				c0.98,0,1.87,0.37,2.57,1.07c0.69,0.69,1.07,1.61,1.07,2.6s-0.37,1.88-1.07,2.58C457.27,275.69,456.38,276.07,455.42,276.07z
				 M460.15,272.41c0-1.26-0.47-2.42-1.38-3.3c-0.89-0.87-2.11-1.35-3.36-1.35c-1.25,0-2.45,0.48-3.35,1.35
				c-0.9,0.88-1.39,2.03-1.39,3.3s0.48,2.4,1.39,3.28c0.89,0.87,2.1,1.36,3.35,1.36c1.24,0,2.45-0.48,3.36-1.36
				C459.67,274.83,460.15,273.67,460.15,272.41z M447.89,276.82h1.05v-8.86h-1.05V276.82z M443.15,276.82h1.05v-7.86h2.5v-1h-6.06v1
				h2.5V276.82z M437.35,269.94l1.41,3.26h-2.83L437.35,269.94z M437.35,267.61l-4.02,9.21h1.14l1.15-2.71h3.46l1.15,2.71h1.14
				L437.35,267.61z M430.12,277.17l3.73-9.21h-1.14l-2.59,6.78l-2.6-6.78h-1.14L430.12,277.17z M421.38,276.07
				c-0.98,0-1.86-0.37-2.57-1.08c-0.69-0.71-1.07-1.59-1.07-2.58s0.37-1.9,1.07-2.6c0.68-0.7,1.59-1.07,2.57-1.07
				c0.98,0,1.87,0.37,2.57,1.07c0.69,0.69,1.07,1.61,1.07,2.6s-0.37,1.88-1.07,2.58C423.24,275.69,422.34,276.07,421.38,276.07z
				 M426.11,272.41c0-1.26-0.47-2.42-1.38-3.3c-0.89-0.87-2.11-1.35-3.36-1.35c-1.25,0-2.45,0.48-3.35,1.35
				c-0.9,0.88-1.39,2.03-1.39,3.3s0.48,2.4,1.39,3.28c0.89,0.87,2.1,1.36,3.35,1.36c1.24,0,2.45-0.48,3.36-1.36
				C425.63,274.83,426.11,273.67,426.11,272.41z M407.45,276.82h1.05v-6.66l6.43,7v-9.21h-1.05v6.73l-6.43-7.08V276.82z
				 M397.85,276.82h1.05v-6.66l6.43,7v-9.21h-1.05v6.73l-6.43-7.08V276.82z M394.65,276.82h1.05v-8.86h-1.05V276.82z M384.53,276.82
				h4.67v-0.98h-3.62v-3.4h3.62v-0.98h-3.62v-2.54h3.62v-0.97h-4.67V276.82z M382.73,270.08v-1.37c-0.92-0.63-1.86-0.95-2.91-0.95
				c-1.3,0-2.39,0.43-3.3,1.3c-0.93,0.9-1.39,2.01-1.39,3.38c0,1.57,0.71,2.91,2,3.8c0.77,0.53,1.67,0.82,2.62,0.82
				c1.08,0,2.11-0.34,2.99-0.97v-1.4c-0.81,0.94-1.78,1.4-2.9,1.4c-1.2,0-2.28-0.57-2.99-1.57c-0.41-0.58-0.61-1.28-0.61-2.1
				c0-1.04,0.34-1.91,1.02-2.61c0.66-0.68,1.6-1.08,2.53-1.08C380.93,268.73,381.88,269.15,382.73,270.08z M365.94,276.82h1.05
				v-6.66l6.43,7v-9.21h-1.05v6.73l-6.43-7.08V276.82z M359.48,276.82h4.67v-0.98h-3.62v-3.4h3.62v-0.98h-3.62v-2.54h3.62v-0.97
				h-4.67V276.82z M354.27,272.25v0.94h2.53c-0.12,1.73-1.44,2.91-3.2,2.91c-2.02,0-3.47-1.5-3.47-3.62c0-2.24,1.41-3.77,3.47-3.77
				c1.25,0,2.21,0.53,2.85,1.61l0.88-0.71c-0.83-1.25-2.08-1.86-3.77-1.86c-1.28,0-2.34,0.38-3.15,1.15
				c-0.95,0.9-1.42,2.09-1.42,3.57c0,1.8,0.83,3.26,2.28,4.05c0.59,0.32,1.35,0.52,2.23,0.52c2.7,0,4.42-1.69,4.42-4.51v-0.3H354.27
				z M346.2,276.82h1.05v-8.86h-1.05V276.82z M340.54,276.82h4.4v-1h-3.35v-7.86h-1.05V276.82z M334.89,276.82h4.4v-1h-3.35v-7.86
				h-1.05V276.82z M328.43,276.82h4.67v-0.98h-3.62v-3.4h3.62v-0.98h-3.62v-2.54h3.62v-0.97h-4.67V276.82z M323.7,276.82h1.05v-7.86
				h2.5v-1h-6.06v1h2.5V276.82z M312.55,276.82h1.05v-6.66l6.43,7v-9.21h-1.05v6.73l-6.43-7.08V276.82z M309.35,276.82h1.05v-8.86
				h-1.05V276.82z M300.03,276.82h4.4v-1h-3.35v-7.86h-1.05V276.82z M295.09,269.94l1.41,3.26h-2.83L295.09,269.94z M295.09,267.61
				l-4.02,9.21h1.14l1.15-2.71h3.46l1.15,2.71h1.14L295.09,267.61z M289.09,276.82h1.05v-8.86h-1.05V276.82z M287.28,270.08v-1.37
				c-0.92-0.63-1.86-0.95-2.91-0.95c-1.3,0-2.39,0.43-3.3,1.3c-0.93,0.9-1.39,2.01-1.39,3.38c0,1.57,0.71,2.91,2,3.8
				c0.77,0.53,1.67,0.82,2.62,0.82c1.08,0,2.11-0.34,2.99-0.97v-1.4c-0.81,0.94-1.78,1.4-2.9,1.4c-1.2,0-2.28-0.57-2.99-1.57
				c-0.41-0.58-0.61-1.28-0.61-2.1c0-1.04,0.33-1.91,1.02-2.61c0.66-0.68,1.6-1.08,2.53-1.08
				C285.48,268.73,286.43,269.15,287.28,270.08z M276.9,276.82h1.05v-8.86h-1.05V276.82z M270.6,276.82h1.05v-4.38h3.62v-0.98h-3.62
				v-2.54h3.62v-0.97h-4.67V276.82z M267.41,276.82h1.05v-8.86h-1.05V276.82z M262.66,276.82h1.05v-7.86h2.5v-1h-6.06v1h2.5V276.82z
				 M254.48,276.82h1.05v-4.23h0.12l3.24,4.23h1.34l-3.38-4.23h0.19c1.56,0,2.39-0.77,2.39-2.22c0-0.87-0.32-1.57-0.83-1.97
				c-0.54-0.42-1.19-0.45-2.03-0.45h-2.08V276.82z M255.53,268.85h0.78c1.4,0,2.07,0.25,2.07,1.54c0,1.23-0.68,1.43-2.07,1.43h-0.78
				V268.85z M249.54,269.94l1.41,3.26h-2.83L249.54,269.94z M249.54,267.61l-4.02,9.21h1.14l1.15-2.71h3.46l1.15,2.71h1.14
				L249.54,267.61z M237.43,276.82h4.4v-1h-3.35v-7.86h-1.05V276.82z M232.49,269.94l1.41,3.26h-2.83L232.49,269.94z M232.49,267.61
				l-4.02,9.21h1.14l1.15-2.71h3.46l1.15,2.71h1.14L232.49,267.61z M222.72,276.82h1.85c1.26,0,2.13-0.04,2.78-0.67
				c0.45-0.45,0.73-1.12,0.73-1.85c0-1.19-0.66-2.02-1.7-2.18c0.84-0.25,1.31-0.89,1.31-1.83c0-0.79-0.33-1.48-0.89-1.88
				c-0.56-0.41-1.26-0.45-2.23-0.45h-1.85V276.82z M223.78,272.67h1.1c0.55,0,0.98,0.01,1.35,0.23c0.48,0.27,0.73,0.76,0.73,1.4
				c0,0.56-0.22,1.04-0.58,1.3c-0.38,0.27-0.97,0.3-1.81,0.3h-0.79V272.67z M223.78,268.88h0.79c1.4,0,2.04,0.26,2.04,1.54
				c0,1.08-0.62,1.43-2.04,1.43h-0.79V268.88z M216.27,276.07c-0.98,0-1.86-0.37-2.57-1.08c-0.69-0.71-1.07-1.59-1.07-2.58
				s0.37-1.9,1.07-2.6c0.68-0.7,1.59-1.07,2.57-1.07c0.98,0,1.87,0.37,2.57,1.07c0.69,0.69,1.07,1.61,1.07,2.6s-0.37,1.88-1.07,2.58
				C218.13,275.69,217.24,276.07,216.27,276.07z M221,272.41c0-1.26-0.47-2.42-1.38-3.3c-0.89-0.87-2.11-1.35-3.36-1.35
				c-1.25,0-2.45,0.48-3.35,1.35c-0.91,0.88-1.39,2.03-1.39,3.3s0.48,2.4,1.39,3.28c0.89,0.87,2.09,1.36,3.35,1.36
				c1.24,0,2.45-0.48,3.36-1.36C220.52,274.83,221,273.67,221,272.41z M206.75,276.82h4.4v-1h-3.35v-7.86h-1.05V276.82z
				 M201.53,272.25v0.94h2.53c-0.12,1.73-1.44,2.91-3.2,2.91c-2.02,0-3.47-1.5-3.47-3.62c0-2.24,1.41-3.77,3.47-3.77
				c1.25,0,2.21,0.53,2.85,1.61l0.88-0.71c-0.83-1.25-2.08-1.86-3.77-1.86c-1.28,0-2.34,0.38-3.15,1.15
				c-0.95,0.9-1.43,2.09-1.43,3.57c0,1.8,0.83,3.26,2.28,4.05c0.6,0.32,1.35,0.52,2.23,0.52c2.7,0,4.42-1.69,4.42-4.51v-0.3H201.53z
				"/>
			<path class="st5" d="M409.13,291.33h1.05v-6.66l6.43,7v-9.21h-1.05v6.73l-6.43-7.08V291.33z M402.68,290.57
				c-0.98,0-1.86-0.37-2.57-1.08c-0.69-0.71-1.07-1.59-1.07-2.58s0.37-1.9,1.07-2.6c0.68-0.7,1.59-1.07,2.57-1.07
				c0.98,0,1.87,0.37,2.57,1.07c0.69,0.69,1.07,1.61,1.07,2.6s-0.37,1.88-1.07,2.58C404.54,290.2,403.65,290.57,402.68,290.57z
				 M407.41,286.92c0-1.26-0.47-2.42-1.38-3.3c-0.89-0.87-2.11-1.35-3.36-1.35c-1.25,0-2.45,0.48-3.35,1.35
				c-0.9,0.88-1.39,2.03-1.39,3.3s0.48,2.4,1.39,3.28c0.89,0.87,2.1,1.36,3.35,1.36c1.24,0,2.45-0.48,3.36-1.36
				C406.93,289.33,407.41,288.18,407.41,286.92z M395.16,291.33h1.05v-8.86h-1.05V291.33z M390.41,291.33h1.05v-7.86h2.5v-1h-6.06v1
				h2.5V291.33z M379.9,282.47v5.52c0,2.39,1.13,3.58,3.43,3.58c2.31,0,3.43-1.19,3.43-3.58v-5.52h-1.05v5.52
				c-0.01,1.77-0.73,2.6-2.38,2.6c-1.65,0-2.38-0.83-2.38-2.6v-5.52H379.9z M374.53,291.33h4.4v-1h-3.35v-7.86h-1.05V291.33z
				 M368.07,290.57c-0.98,0-1.86-0.37-2.57-1.08c-0.69-0.71-1.07-1.59-1.07-2.58s0.37-1.9,1.07-2.6c0.68-0.7,1.59-1.07,2.57-1.07
				c0.98,0,1.87,0.37,2.57,1.07c0.69,0.69,1.07,1.61,1.07,2.6s-0.37,1.88-1.07,2.58C369.93,290.2,369.04,290.57,368.07,290.57z
				 M372.81,286.92c0-1.26-0.47-2.42-1.38-3.3c-0.89-0.87-2.11-1.35-3.36-1.35c-1.25,0-2.45,0.48-3.35,1.35
				c-0.9,0.88-1.39,2.03-1.39,3.3s0.48,2.4,1.39,3.28c0.89,0.87,2.1,1.36,3.35,1.36c1.24,0,2.45-0.48,3.36-1.36
				C372.32,289.33,372.81,288.18,372.81,286.92z M359.32,291.68l3.73-9.21h-1.14l-2.59,6.78l-2.6-6.78h-1.14L359.32,291.68z
				 M350.34,291.33h4.67v-0.98h-3.62v-3.4h3.62v-0.98h-3.62v-2.54h3.62v-0.97h-4.67V291.33z M338.75,290.34v-6.89h0.68
				c1.52,0,2.58,0.03,3.31,0.64c0.73,0.61,1.12,1.55,1.12,2.8c0,1.25-0.4,2.22-1.12,2.81c-0.74,0.62-1.8,0.63-3.31,0.63H338.75z
				 M337.7,291.33h2.08c1.44,0,2.6-0.04,3.63-0.83c1.02-0.78,1.55-2.01,1.55-3.59c0-1.59-0.53-2.83-1.55-3.61
				c-1.08-0.83-2.36-0.83-4.02-0.83h-1.7V291.33z M328.1,291.33h1.05v-6.66l6.43,7v-9.21h-1.05v6.73l-6.43-7.08V291.33z
				 M323.15,284.45l1.41,3.26h-2.83L323.15,284.45z M323.15,282.12l-4.02,9.21h1.14l1.15-2.71h3.46l1.15,2.71h1.14L323.15,282.12z
				 M311.96,291.33h1.05v-7.86h2.5v-1h-6.06v1h2.5V291.33z M300.81,291.33h1.05v-6.66l6.43,7v-9.21h-1.05v6.73l-6.43-7.08V291.33z
				 M294.35,291.33h4.67v-0.98h-3.62v-3.4h3.62v-0.98h-3.62v-2.54h3.62v-0.97h-4.67V291.33z M288.1,291.68l2.74-6.37l1.13,6.02h1.03
				l-1.8-9.21l-3.1,7.32l-3.1-7.32l-1.8,9.21h1.03l1.12-6.02L288.1,291.68z M277.52,291.33h4.67v-0.98h-3.62v-3.4h3.62v-0.98h-3.62
				v-2.54h3.62v-0.97h-4.67V291.33z M272.86,291.68l3.73-9.21h-1.14l-2.59,6.78l-2.6-6.78h-1.14L272.86,291.68z M264.11,290.57
				c-0.98,0-1.86-0.37-2.57-1.08c-0.69-0.71-1.07-1.59-1.07-2.58s0.37-1.9,1.07-2.6c0.68-0.7,1.59-1.07,2.57-1.07
				c0.98,0,1.87,0.37,2.57,1.07c0.69,0.69,1.07,1.61,1.07,2.6s-0.37,1.88-1.07,2.58C265.97,290.2,265.08,290.57,264.11,290.57z
				 M268.84,286.92c0-1.26-0.47-2.42-1.38-3.3c-0.89-0.87-2.11-1.35-3.36-1.35c-1.25,0-2.45,0.48-3.35,1.35
				c-0.91,0.88-1.39,2.03-1.39,3.3s0.48,2.4,1.39,3.28c0.89,0.87,2.09,1.36,3.35,1.36c1.24,0,2.45-0.48,3.36-1.36
				C268.36,289.33,268.84,288.18,268.84,286.92z M253.53,291.68l2.74-6.37l1.13,6.02h1.03l-1.8-9.21l-3.1,7.32l-3.1-7.32l-1.8,9.21
				h1.03l1.12-6.02L253.53,291.68z"/>
		</g>
		<g>
			<path class="st5" d="M436.28,310.95c-0.01-0.32-0.02-0.63-0.02-0.95c0-0.32,0-0.66,0-1.04s0-0.84,0-1.41c0-0.52,0-0.95,0-1.32
				c0-0.36,0-0.69,0-0.97s0.01-0.56,0.02-0.83c0.01-0.27,0.03-0.58,0.05-0.93c0.75-0.05,1.35-0.07,1.79-0.07c0.44,0,0.98,0,1.62,0
				c0.77,0,1.44,0.01,1.99,0.03c0.55,0.02,1.04,0.06,1.46,0.11c0.42,0.05,0.8,0.09,1.14,0.14c0.34,0.05,0.67,0.11,1,0.18
				c-0.05-0.19-0.08-0.36-0.11-0.51c-0.02-0.15-0.03-0.36-0.03-0.62c0-0.23,0.01-0.45,0.03-0.65c0.02-0.2,0.06-0.39,0.11-0.58
				c-0.89,0.09-1.78,0.15-2.67,0.18c-0.89,0.02-1.78,0.03-2.67,0.03c-1.24,0-2.47-0.01-3.67-0.02c-1.21-0.01-2.43-0.08-3.67-0.19
				c0.05,0.87,0.09,1.8,0.12,2.8c0.04,1,0.06,2.01,0.09,3.04s0.04,2.05,0.05,3.06c0.01,1.01,0.02,1.95,0.02,2.81
				c0,1.92-0.01,3.53-0.03,4.83c-0.02,1.3-0.05,2.41-0.09,3.34c-0.04,0.93-0.08,1.73-0.12,2.41c-0.05,0.68-0.09,1.35-0.14,2.01
				c1.36-0.05,2.72-0.09,4.08-0.14c1.36-0.05,2.72-0.07,4.08-0.07c0.82,0,1.63,0.01,2.44,0.02c0.81,0.01,1.62,0.08,2.44,0.19
				c-0.05-0.19-0.08-0.36-0.11-0.51c-0.02-0.15-0.03-0.36-0.03-0.62c0-0.26,0.01-0.47,0.03-0.65c0.02-0.18,0.06-0.36,0.11-0.54
				c-2.09,0.21-3.87,0.33-5.34,0.37c-1.48,0.04-2.78,0.05-3.9,0.05c0-0.23-0.01-0.56-0.02-0.98c-0.01-0.42-0.02-0.89-0.03-1.41
				c-0.01-0.52-0.02-1.04-0.04-1.57c-0.01-0.53-0.02-1.03-0.02-1.49c0-0.75,0.01-1.52,0.02-2.3c0.01-0.78,0.03-1.55,0.05-2.3
				c0.44-0.02,0.91-0.04,1.41-0.05c0.49-0.01,0.97-0.02,1.44-0.02c0.75,0,1.62,0.03,2.6,0.09c0.98,0.06,1.93,0.15,2.85,0.26
				c-0.02-0.19-0.05-0.37-0.09-0.55c-0.04-0.17-0.05-0.36-0.05-0.54c0-0.26,0.01-0.48,0.04-0.65c0.02-0.18,0.06-0.36,0.1-0.55
				c-1.38,0.16-2.76,0.25-4.13,0.26c-1.37,0.01-2.76,0.01-4.17-0.02C436.3,311.66,436.29,311.27,436.28,310.95z M427.82,320.96
				c-0.68,0.82-1.41,1.47-2.18,1.95s-1.52,0.84-2.25,1.09c-0.73,0.25-1.4,0.4-2.02,0.47c-0.62,0.07-1.13,0.11-1.53,0.11
				c-1.24,0-2.44-0.23-3.59-0.69c-1.15-0.46-2.16-1.14-3.04-2.04c-0.88-0.9-1.58-2.04-2.11-3.41c-0.53-1.37-0.79-2.97-0.79-4.8
				c0-1.69,0.22-3.2,0.67-4.55c0.44-1.35,1.07-2.49,1.88-3.43c0.81-0.94,1.78-1.65,2.92-2.14c1.14-0.49,2.4-0.74,3.78-0.74
				c0.89,0,1.75,0.11,2.57,0.32c0.82,0.21,1.56,0.5,2.23,0.86c0.67,0.36,1.25,0.78,1.74,1.25s0.86,0.95,1.09,1.44h0.35
				c0.05-0.4,0.09-0.74,0.14-1.02c0.05-0.28,0.1-0.55,0.16-0.79c0.06-0.25,0.13-0.5,0.21-0.77c0.08-0.27,0.19-0.58,0.33-0.93
				c-0.4-0.16-0.87-0.36-1.42-0.58c-0.55-0.22-1.19-0.43-1.92-0.62c-0.73-0.19-1.53-0.35-2.42-0.47c-0.89-0.13-1.86-0.19-2.92-0.19
				c-2.32,0-4.32,0.33-6.01,0.98c-1.69,0.66-3.08,1.55-4.18,2.67c-1.1,1.12-1.92,2.44-2.46,3.95c-0.54,1.51-0.81,3.11-0.81,4.8
				c0,1.81,0.29,3.48,0.86,5.01c0.57,1.54,1.42,2.87,2.53,3.99c1.11,1.13,2.47,2.01,4.06,2.64c1.59,0.63,3.41,0.95,5.45,0.95
				c1.55,0,3.06-0.19,4.54-0.56c1.48-0.37,2.87-0.95,4.18-1.72c0.05-0.66,0.1-1.2,0.16-1.62c0.06-0.42,0.13-0.83,0.23-1.23
				L427.82,320.96z M382.19,307.66l6.86,7.14c0.3,0.3,0.6,0.6,0.9,0.9c0.29,0.29,0.59,0.58,0.9,0.86c0.4,0.37,0.87,0.84,1.42,1.41
				c0.55,0.56,1.12,1.15,1.72,1.78c0.6,0.62,1.19,1.26,1.79,1.92c0.6,0.66,1.15,1.27,1.67,1.84c0.52,0.57,0.97,1.09,1.35,1.55
				c0.39,0.46,0.67,0.79,0.86,1l0.3-0.05l0.26-0.02l0.32,0.02c0.09,0.01,0.21,0.03,0.35,0.05c-0.05-0.63-0.08-1.35-0.09-2.14
				c-0.01-0.8-0.02-1.62-0.04-2.48c-0.01-0.86-0.02-1.71-0.02-2.55s0-1.61,0-2.28c0-2.55,0.02-5.09,0.07-7.61
				c0.05-2.52,0.22-5.06,0.53-7.61c-0.23,0.05-0.47,0.09-0.72,0.14c-0.25,0.05-0.51,0.07-0.79,0.07c-0.28,0-0.53-0.02-0.76-0.07
				c-0.22-0.05-0.43-0.09-0.62-0.14c0.12,1.27,0.21,2.46,0.26,3.57c0.06,1.11,0.1,2.3,0.14,3.57c0.03,1.26,0.05,2.69,0.05,4.27
				c0,1.58,0,3.5,0,5.75v1.3c-0.75-0.75-1.41-1.42-1.97-2s-1.11-1.15-1.64-1.69c-0.53-0.54-1.05-1.08-1.58-1.63
				c-0.53-0.55-1.12-1.17-1.78-1.86c-0.66-0.69-1.41-1.49-2.27-2.39c-0.86-0.9-1.87-1.97-3.04-3.22c-0.54-0.56-1-1.05-1.39-1.46
				c-0.39-0.41-0.73-0.78-1.04-1.11c-0.3-0.33-0.57-0.63-0.81-0.9c-0.23-0.27-0.47-0.55-0.7-0.83l-1.16-1.37
				c-0.16,0.02-0.3,0.04-0.41,0.05l-0.33,0.02l-0.26-0.02l-0.3-0.05v4.22c0,0.33,0.01,0.9,0.02,1.72c0.01,0.82,0.02,1.69,0.03,2.62
				c0.01,0.93,0.02,1.81,0.04,2.65c0.01,0.84,0.02,1.44,0.02,1.79c0,0.91-0.02,1.95-0.05,3.09c-0.03,1.15-0.08,2.27-0.12,3.36
				c-0.05,1.09-0.09,2.09-0.14,2.99c-0.05,0.9-0.09,1.58-0.14,2.02c0.21-0.05,0.41-0.09,0.6-0.14c0.19-0.05,0.44-0.07,0.77-0.07
				s0.6,0.02,0.83,0.07c0.22,0.05,0.44,0.09,0.65,0.14c-0.05-0.92-0.09-1.75-0.14-2.5c-0.05-0.75-0.09-1.48-0.12-2.18
				c-0.03-0.7-0.06-1.42-0.09-2.16c-0.02-0.74-0.05-1.55-0.09-2.43c-0.04-0.88-0.06-1.86-0.07-2.93c-0.01-1.08-0.03-2.33-0.05-3.76
				V307.66z M365.96,310.95c-0.01-0.32-0.02-0.63-0.02-0.95c0-0.32,0-0.66,0-1.04s0-0.84,0-1.41c0-0.52,0-0.95,0-1.32
				c0-0.36,0-0.69,0-0.97s0.01-0.56,0.02-0.83c0.01-0.27,0.03-0.58,0.05-0.93c0.75-0.05,1.35-0.07,1.79-0.07c0.44,0,0.98,0,1.62,0
				c0.77,0,1.44,0.01,1.99,0.03c0.55,0.02,1.04,0.06,1.46,0.11c0.42,0.05,0.8,0.09,1.14,0.14c0.34,0.05,0.67,0.11,1,0.18
				c-0.05-0.19-0.08-0.36-0.11-0.51c-0.02-0.15-0.03-0.36-0.03-0.62c0-0.23,0.01-0.45,0.03-0.65c0.02-0.2,0.06-0.39,0.11-0.58
				c-0.89,0.09-1.78,0.15-2.67,0.18c-0.89,0.02-1.78,0.03-2.67,0.03c-1.24,0-2.47-0.01-3.67-0.02c-1.21-0.01-2.43-0.08-3.67-0.19
				c0.05,0.87,0.09,1.8,0.12,2.8c0.04,1,0.06,2.01,0.09,3.04s0.04,2.05,0.05,3.06c0.01,1.01,0.02,1.95,0.02,2.81
				c0,1.92-0.01,3.53-0.03,4.83c-0.02,1.3-0.05,2.41-0.09,3.34c-0.04,0.93-0.08,1.73-0.12,2.41c-0.05,0.68-0.09,1.35-0.14,2.01
				c1.36-0.05,2.72-0.09,4.08-0.14c1.36-0.05,2.72-0.07,4.08-0.07c0.82,0,1.63,0.01,2.44,0.02c0.81,0.01,1.62,0.08,2.44,0.19
				c-0.05-0.19-0.08-0.36-0.11-0.51c-0.02-0.15-0.03-0.36-0.03-0.62c0-0.26,0.01-0.47,0.03-0.65c0.02-0.18,0.06-0.36,0.11-0.54
				c-2.09,0.21-3.87,0.33-5.34,0.37c-1.48,0.04-2.78,0.05-3.9,0.05c0-0.23-0.01-0.56-0.02-0.98c-0.01-0.42-0.02-0.89-0.03-1.41
				c-0.01-0.52-0.02-1.04-0.04-1.57c-0.01-0.53-0.02-1.03-0.02-1.49c0-0.75,0.01-1.52,0.02-2.3c0.01-0.78,0.03-1.55,0.05-2.3
				c0.44-0.02,0.91-0.04,1.41-0.05c0.49-0.01,0.97-0.02,1.44-0.02c0.75,0,1.62,0.03,2.6,0.09c0.98,0.06,1.93,0.15,2.85,0.26
				c-0.02-0.19-0.05-0.37-0.09-0.55c-0.04-0.17-0.05-0.36-0.05-0.54c0-0.26,0.01-0.48,0.04-0.65c0.02-0.18,0.06-0.36,0.1-0.55
				c-1.38,0.16-2.76,0.25-4.13,0.26c-1.37,0.01-2.76,0.01-4.17-0.02C365.98,311.66,365.97,311.27,365.96,310.95z M358.84,325.42
				c-0.07-0.09-0.31-0.4-0.72-0.93c-0.41-0.53-0.92-1.18-1.53-1.95c-0.61-0.77-1.27-1.61-1.97-2.5c-0.7-0.89-1.38-1.76-2.02-2.6
				c-0.64-0.84-1.23-1.61-1.74-2.3c-0.52-0.69-0.88-1.2-1.09-1.53c0.54-0.09,1.2-0.24,1.99-0.44c0.79-0.2,1.54-0.52,2.27-0.97
				c0.73-0.44,1.35-1.05,1.86-1.83c0.52-0.77,0.77-1.79,0.77-3.06c0-0.84-0.13-1.62-0.39-2.34c-0.26-0.71-0.73-1.34-1.41-1.88
				c-0.28-0.23-0.59-0.44-0.93-0.63c-0.34-0.19-0.76-0.34-1.25-0.46c-0.49-0.12-1.1-0.21-1.81-0.28c-0.72-0.07-1.6-0.11-2.66-0.11
				c-0.14,0-0.4,0-0.79,0c-0.39,0-0.8,0.01-1.23,0.02c-0.43,0.01-0.84,0.02-1.23,0.02c-0.39,0-0.66,0-0.83,0
				c-0.38,0-0.81-0.01-1.3-0.02c-0.49-0.01-1.08-0.05-1.76-0.12c0.05,1.99,0.09,3.89,0.14,5.7c0.05,1.81,0.07,3.53,0.07,5.17
				c0,2.58-0.02,4.95-0.05,7.1c-0.03,2.16-0.1,4.28-0.19,6.36c0.26-0.05,0.52-0.09,0.77-0.14c0.26-0.05,0.62-0.07,1.09-0.07
				c0.33,0,0.67,0.02,1.04,0.05c0.36,0.04,0.7,0.09,1,0.16c-0.14-2.84-0.22-5.19-0.23-7.07c-0.01-1.88-0.02-3.45-0.02-4.71h0.92
				c0.68,0.8,1.35,1.61,2.02,2.44c0.67,0.83,1.35,1.72,2.06,2.67c0.7,0.95,1.42,1.97,2.16,3.06c0.74,1.09,1.53,2.29,2.37,3.6
				c0.49-0.05,0.94-0.09,1.35-0.14c0.41-0.05,0.8-0.07,1.18-0.07c0.4,0,0.75,0.02,1.06,0.07c0.3,0.05,0.64,0.09,1.02,0.14V325.42z
				 M352.22,310.57c-0.53,0.69-1.14,1.2-1.84,1.53c-0.7,0.33-1.41,0.53-2.13,0.62c-0.72,0.08-1.27,0.14-1.67,0.16
				c-0.42,0.02-0.75,0.04-1,0.04c-0.25,0-0.53-0.02-0.86-0.07c0-0.19,0-0.47,0-0.84s-0.01-0.79-0.02-1.25
				c-0.01-0.46-0.02-0.93-0.02-1.41c0-0.48,0-0.92,0-1.32c0-0.8,0-1.59,0-2.39c0-0.8,0.02-1.59,0.07-2.39
				c0.23-0.05,0.53-0.09,0.9-0.12c0.36-0.03,0.8-0.05,1.32-0.05c0.63,0,1.31,0.05,2.02,0.14c0.72,0.09,1.37,0.3,1.97,0.63
				c0.6,0.33,1.09,0.8,1.48,1.41c0.39,0.61,0.58,1.43,0.58,2.46C353.01,308.92,352.74,309.87,352.22,310.57z M326.9,310.95
				c-0.01-0.32-0.02-0.63-0.02-0.95c0-0.32,0-0.66,0-1.04s0-0.84,0-1.41c0-0.52,0-0.95,0-1.32c0-0.36,0-0.69,0-0.97
				s0.01-0.56,0.02-0.83c0.01-0.27,0.03-0.58,0.05-0.93c0.75-0.05,1.35-0.07,1.79-0.07c0.44,0,0.98,0,1.62,0
				c0.77,0,1.44,0.01,1.99,0.03c0.55,0.02,1.04,0.06,1.46,0.11c0.42,0.05,0.8,0.09,1.14,0.14c0.34,0.05,0.67,0.11,1,0.18
				c-0.05-0.19-0.08-0.36-0.11-0.51c-0.02-0.15-0.03-0.36-0.03-0.62c0-0.23,0.01-0.45,0.03-0.65c0.02-0.2,0.06-0.39,0.11-0.58
				c-0.89,0.09-1.78,0.15-2.67,0.18c-0.89,0.02-1.78,0.03-2.67,0.03c-1.24,0-2.47-0.01-3.67-0.02c-1.21-0.01-2.43-0.08-3.67-0.19
				c0.05,0.87,0.09,1.8,0.12,2.8c0.04,1,0.06,2.01,0.09,3.04s0.04,2.05,0.05,3.06c0.01,1.01,0.02,1.95,0.02,2.81
				c0,1.92-0.01,3.53-0.03,4.83c-0.02,1.3-0.05,2.41-0.09,3.34c-0.04,0.93-0.08,1.73-0.12,2.41c-0.05,0.68-0.09,1.35-0.14,2.01
				c1.36-0.05,2.72-0.09,4.08-0.14c1.36-0.05,2.72-0.07,4.08-0.07c0.82,0,1.63,0.01,2.44,0.02c0.81,0.01,1.62,0.08,2.44,0.19
				c-0.05-0.19-0.08-0.36-0.11-0.51c-0.02-0.15-0.03-0.36-0.03-0.62c0-0.26,0.01-0.47,0.03-0.65c0.02-0.18,0.06-0.36,0.11-0.54
				c-2.09,0.21-3.87,0.33-5.34,0.37c-1.48,0.04-2.78,0.05-3.9,0.05c0-0.23-0.01-0.56-0.02-0.98c-0.01-0.42-0.02-0.89-0.03-1.41
				c-0.01-0.52-0.02-1.04-0.04-1.57c-0.01-0.53-0.02-1.03-0.02-1.49c0-0.75,0.01-1.52,0.02-2.3c0.01-0.78,0.03-1.55,0.05-2.3
				c0.44-0.02,0.91-0.04,1.41-0.05c0.49-0.01,0.97-0.02,1.44-0.02c0.75,0,1.62,0.03,2.6,0.09c0.98,0.06,1.93,0.15,2.85,0.26
				c-0.02-0.19-0.05-0.37-0.09-0.55c-0.04-0.17-0.05-0.36-0.05-0.54c0-0.26,0.01-0.48,0.04-0.65c0.02-0.18,0.06-0.36,0.1-0.55
				c-1.38,0.16-2.76,0.25-4.13,0.26c-1.37,0.01-2.76,0.01-4.17-0.02C326.92,311.66,326.91,311.27,326.9,310.95z M309.34,313.92
				c0.44-0.02,0.89-0.04,1.34-0.05c0.44-0.01,0.93-0.02,1.44-0.02c0.75,0,1.64,0.02,2.66,0.07c1.02,0.05,2.04,0.15,3.08,0.32
				c-0.05-0.19-0.08-0.36-0.11-0.51c-0.02-0.15-0.04-0.36-0.04-0.62c0-0.26,0.01-0.48,0.04-0.67c0.02-0.19,0.06-0.37,0.11-0.56
				c-0.56,0.07-1.19,0.13-1.88,0.18c-0.69,0.05-1.41,0.08-2.14,0.09c-0.74,0.01-1.49,0.02-2.25,0.02s-1.51,0-2.23,0
				c0-0.47-0.01-0.86-0.02-1.18c-0.01-0.32-0.02-0.63-0.02-0.95c0-0.32,0-0.66,0-1.04c0-0.37,0-0.84,0-1.41c0-0.52,0-0.95,0-1.32
				c0-0.36,0-0.69,0-0.99c0-0.29,0.01-0.57,0.02-0.84c0.01-0.27,0.03-0.58,0.05-0.93c0.4-0.02,0.78-0.04,1.16-0.04
				c0.37,0,0.74,0,1.09,0c1.45,0,2.79,0.05,4.01,0.16c1.22,0.1,2.2,0.22,2.95,0.33c-0.05-0.19-0.08-0.37-0.1-0.55
				c-0.02-0.17-0.04-0.39-0.04-0.65c0-0.26,0.01-0.48,0.04-0.67c0.02-0.19,0.06-0.37,0.1-0.56c-0.33,0.05-0.67,0.08-1.02,0.11
				c-0.35,0.02-0.79,0.04-1.32,0.05c-0.53,0.01-1.18,0.02-1.97,0.04c-0.79,0.01-1.76,0.02-2.94,0.02c-0.66,0-1.23,0-1.72,0
				c-0.49,0-0.95-0.01-1.37-0.02c-0.42-0.01-0.83-0.04-1.23-0.07c-0.4-0.04-0.84-0.08-1.34-0.12c0.05,0.84,0.09,1.81,0.12,2.88
				s0.06,2.18,0.09,3.3c0.02,1.13,0.04,2.23,0.05,3.31c0.01,1.08,0.02,2.04,0.02,2.88c0,2.3-0.03,4.41-0.1,6.33
				c-0.07,1.92-0.16,3.78-0.28,5.59c0.28-0.05,0.56-0.09,0.83-0.14c0.27-0.05,0.64-0.07,1.11-0.07c0.49,0,0.89,0.02,1.19,0.07
				c0.3,0.05,0.6,0.09,0.88,0.14c-0.05-0.52-0.09-1.01-0.12-1.5c-0.04-0.48-0.06-0.99-0.09-1.53c-0.02-0.54-0.04-1.13-0.05-1.78
				c-0.01-0.64-0.02-1.4-0.02-2.27L309.34,313.92z M280.62,307.66l6.85,7.14c0.3,0.3,0.6,0.6,0.9,0.9c0.29,0.29,0.59,0.58,0.9,0.86
				c0.4,0.37,0.87,0.84,1.42,1.41c0.55,0.56,1.12,1.15,1.72,1.78c0.6,0.62,1.19,1.26,1.79,1.92c0.6,0.66,1.15,1.27,1.67,1.84
				c0.51,0.57,0.97,1.09,1.35,1.55c0.39,0.46,0.67,0.79,0.86,1l0.3-0.05l0.26-0.02l0.32,0.02c0.09,0.01,0.21,0.03,0.35,0.05
				c-0.05-0.63-0.07-1.35-0.09-2.14c-0.01-0.8-0.02-1.62-0.03-2.48c-0.01-0.86-0.02-1.71-0.02-2.55s0-1.61,0-2.28
				c0-2.55,0.02-5.09,0.07-7.61c0.05-2.52,0.22-5.06,0.53-7.61c-0.24,0.05-0.47,0.09-0.72,0.14c-0.25,0.05-0.51,0.07-0.79,0.07
				s-0.53-0.02-0.75-0.07c-0.22-0.05-0.43-0.09-0.62-0.14c0.12,1.27,0.21,2.46,0.26,3.57c0.06,1.11,0.11,2.3,0.14,3.57
				c0.03,1.26,0.05,2.69,0.05,4.27c0,1.58,0,3.5,0,5.75v1.3c-0.75-0.75-1.41-1.42-1.97-2c-0.56-0.59-1.11-1.15-1.64-1.69
				c-0.53-0.54-1.05-1.08-1.58-1.63c-0.53-0.55-1.12-1.17-1.77-1.86c-0.66-0.69-1.41-1.49-2.27-2.39c-0.86-0.9-1.87-1.97-3.04-3.22
				c-0.54-0.56-1-1.05-1.39-1.46c-0.39-0.41-0.73-0.78-1.04-1.11c-0.3-0.33-0.57-0.63-0.81-0.9c-0.23-0.27-0.47-0.55-0.7-0.83
				l-1.16-1.37c-0.16,0.02-0.3,0.04-0.41,0.05l-0.33,0.02l-0.26-0.02l-0.3-0.05v4.22c0,0.33,0.01,0.9,0.02,1.72
				c0.01,0.82,0.02,1.69,0.04,2.62c0.01,0.93,0.02,1.81,0.04,2.65c0.01,0.84,0.02,1.44,0.02,1.79c0,0.91-0.02,1.95-0.05,3.09
				c-0.04,1.15-0.08,2.27-0.12,3.36c-0.05,1.09-0.09,2.09-0.14,2.99c-0.05,0.9-0.09,1.58-0.14,2.02c0.21-0.05,0.41-0.09,0.6-0.14
				c0.19-0.05,0.44-0.07,0.77-0.07c0.33,0,0.6,0.02,0.83,0.07c0.22,0.05,0.44,0.09,0.65,0.14c-0.05-0.92-0.09-1.75-0.14-2.5
				s-0.09-1.48-0.12-2.18c-0.03-0.7-0.06-1.42-0.09-2.16c-0.02-0.74-0.05-1.55-0.09-2.43c-0.03-0.88-0.06-1.86-0.07-2.93
				c-0.01-1.08-0.03-2.33-0.05-3.76V307.66z M254.2,302.13c-1.68,0.62-3.09,1.49-4.25,2.6c-1.16,1.11-2.04,2.44-2.65,3.99
				c-0.61,1.55-0.91,3.26-0.91,5.13c0,1.95,0.33,3.69,0.98,5.24c0.66,1.55,1.57,2.86,2.74,3.94c1.17,1.08,2.57,1.9,4.18,2.48
				c1.62,0.57,3.39,0.86,5.31,0.86c2.09,0,3.97-0.33,5.64-0.98c1.68-0.66,3.1-1.57,4.27-2.73c1.17-1.16,2.07-2.53,2.71-4.11
				c0.63-1.58,0.95-3.29,0.95-5.12c0-1.97-0.35-3.71-1.04-5.24c-0.69-1.52-1.63-2.81-2.83-3.85c-1.2-1.04-2.6-1.83-4.2-2.36
				c-1.61-0.53-3.32-0.79-5.15-0.79C257.79,301.2,255.87,301.51,254.2,302.13z M251.19,308.72c0.54-1.41,1.25-2.55,2.13-3.45
				c0.88-0.89,1.88-1.54,3.01-1.95c1.12-0.41,2.27-0.62,3.45-0.62c0.59,0,1.24,0.06,1.95,0.19c0.71,0.13,1.43,0.35,2.14,0.67
				c0.71,0.32,1.4,0.74,2.06,1.28c0.66,0.54,1.22,1.21,1.69,2c0.3,0.52,0.56,1.07,0.76,1.67c0.2,0.6,0.36,1.19,0.47,1.79
				c0.12,0.6,0.2,1.18,0.25,1.76c0.05,0.57,0.07,1.08,0.07,1.53c0,1.81-0.24,3.4-0.7,4.8c-0.47,1.39-1.12,2.57-1.97,3.53
				c-0.84,0.96-1.85,1.69-3.01,2.18c-1.16,0.49-2.43,0.74-3.81,0.74c-1.36,0-2.61-0.25-3.74-0.75c-1.14-0.5-2.12-1.23-2.94-2.18
				c-0.82-0.95-1.46-2.11-1.92-3.48c-0.46-1.37-0.69-2.91-0.69-4.62C250.38,311.83,250.65,310.13,251.19,308.72z M242.26,320.96
				c-0.68,0.82-1.41,1.47-2.18,1.95c-0.77,0.48-1.52,0.84-2.25,1.09c-0.73,0.25-1.4,0.4-2.02,0.47s-1.13,0.11-1.53,0.11
				c-1.24,0-2.44-0.23-3.59-0.69c-1.15-0.46-2.16-1.14-3.04-2.04c-0.88-0.9-1.58-2.04-2.11-3.41c-0.53-1.37-0.79-2.97-0.79-4.8
				c0-1.69,0.22-3.2,0.67-4.55c0.44-1.35,1.07-2.49,1.88-3.43s1.78-1.65,2.92-2.14c1.14-0.49,2.4-0.74,3.78-0.74
				c0.89,0,1.75,0.11,2.57,0.32c0.82,0.21,1.56,0.5,2.23,0.86c0.67,0.36,1.25,0.78,1.74,1.25c0.49,0.47,0.85,0.95,1.09,1.44h0.35
				c0.05-0.4,0.09-0.74,0.14-1.02c0.05-0.28,0.1-0.55,0.16-0.79c0.06-0.25,0.13-0.5,0.21-0.77c0.08-0.27,0.19-0.58,0.33-0.93
				c-0.4-0.16-0.87-0.36-1.42-0.58c-0.55-0.22-1.19-0.43-1.92-0.62c-0.73-0.19-1.54-0.35-2.43-0.47c-0.89-0.13-1.86-0.19-2.92-0.19
				c-2.32,0-4.32,0.33-6.01,0.98c-1.69,0.66-3.08,1.55-4.18,2.67c-1.1,1.12-1.92,2.44-2.46,3.95c-0.54,1.51-0.81,3.11-0.81,4.8
				c0,1.81,0.29,3.48,0.86,5.01c0.57,1.54,1.42,2.87,2.53,3.99c1.11,1.13,2.47,2.01,4.06,2.64c1.59,0.63,3.41,0.95,5.45,0.95
				c1.55,0,3.06-0.19,4.54-0.56c1.48-0.37,2.87-0.95,4.18-1.72c0.05-0.66,0.1-1.2,0.16-1.62c0.06-0.42,0.14-0.83,0.23-1.23
				L242.26,320.96z"/>
		</g>
		<polyline class="st5" points="186.44,295.64 479.56,295.64 479.56,295.14 186.44,295.14 		"/>
		<polyline class="st5" points="186.44,263.33 479.56,263.33 479.56,262.83 186.44,262.83 		"/>
	</g>
	<g>
		<polyline class="st5" points="177.66,188.51 177.66,311.49 178.28,311.49 178.28,188.51 		"/>
	</g>
</g>
</svg>
